# ProBuilder 4.2.3
# https://unity3d.com/unity/features/worldbuilding/probuilder
# 27/05/2020 18:54:32

mtllib ./Arbusto_5.mtl
o Arbusto 5

g Arbusto 5
v 0.620345 0.187955 -0.9997301
v 0.6203439 0.4693609 -0.9997302
v 0.2977601 0.46936 -0.9997302
v 0.2977611 0.187956 -0.9997301
v -0.2622545 0.187955 -0.9997301
v -0.2622538 0.4693609 -0.9997321
v -0.6203439 0.187955 -0.9997301
v -0.6203442 0.4693614 -0.9997302
v 0.6203451 1.009689 -0.8151237
v 0.6203451 1.208344 -0.8151237
v 0.2977613 1.208345 -0.8151237
v 0.2977612 1.00969 -0.8151237
v 0.6203446 0.4693614 -0.8151236
v 0.2977607 0.469359 -0.8151236
v -0.2622538 0.4693609 -0.8151246
v -0.2622533 1.00969 -0.8151237
v -0.6203439 0.4693614 -0.8151236
v -0.6203427 1.009688 -0.8151237
v -0.2622538 1.208345 -0.8151237
v -0.6203432 1.208345 -0.8151237
v -0.6203415 1.396416 -0.8151237
v -0.2622519 1.396415 -0.8151237
v 0.6203458 1.208344 0.8151237
v 0.6203451 1.009689 0.8151208
v 0.2977612 1.00969 0.8151218
v 0.2977619 1.208346 0.8151237
v 0.6203451 1.40433 0.8151246
v -0.2622528 1.208347 0.8151237
v -0.2622542 1.00969 0.8151218
v 0.2977618 1.404332 0.8151236
v 0.6203455 1.530389 0.8151236
v 0.2977618 1.53039 0.8151217
v -0.2622526 1.40433 0.8151236
v -0.6203425 1.208344 0.8151237
v -0.620343 1.009689 0.8151208
v -0.6203427 1.40433 0.8151236
v 0.2977618 -0.03234351 -0.8151236
v 0.6203451 -0.03234231 -0.8151236
v 0.6203451 0.187955 -0.8151236
v 0.2977613 0.187955 -0.8151236
v -0.2622533 -0.03234208 -0.8151236
v -0.2622533 0.187955 -0.8151236
v -0.6203432 -0.03234422 -0.8151236
v -0.6203432 0.187955 -0.8151236
v 0.6203504 0.1879595 1.490935
v 0.6203493 -0.03233689 1.490937
v 0.2977641 -0.03233999 1.490937
v 0.2977645 0.1879595 1.490937
v 0.6203487 0.4693626 1.490934
v 0.297762 0.4693664 1.490935
v -0.2622561 0.4693664 1.490933
v -0.2622542 0.1879604 1.490937
v -0.6203442 0.4693683 1.490934
v -0.2622542 -0.03234309 1.490936
v -0.6203444 0.1879604 1.490937
v -0.6203456 -0.03234309 1.490937
v 0.6203439 1.53039 0.627161
v 0.2977601 1.530389 0.627161
v 0.6203449 -0.03234303 -0.627902
v 0.2977612 -0.03234422 -0.627902
v 0.6203451 -0.03234512 -0.3793831
v -0.2622538 -0.03234589 -0.6279029
v 0.2977635 -0.03234488 -0.3793821
v 0.620345 -0.0323444 0.2332412
v -0.6203439 -0.03234446 -0.627902
v -0.2622545 -0.03234392 -0.3793831
v -0.620342 -0.03234416 -0.3793831
v -0.6203437 -0.03234273 0.2332412
v 0.2977611 -0.03234392 0.2332412
v 0.6203444 -0.0323441 0.6271622
v -0.2622545 -0.03234464 0.2332412
v 0.2977619 -0.03234404 0.8151248
v 0.6203458 -0.03234428 0.8151239
v 0.6203485 -0.03233904 1.22653
v -0.6203411 -0.03234428 0.8151239
v -0.6203442 -0.03234506 0.6271622
v -0.2622526 -0.03234404 0.8151239
v 0.2977633 -0.03234118 1.22653
v -0.2622542 -0.03234261 1.22653
v -0.6203451 -0.03234285 1.22653
v 0.6203439 1.208345 -0.6279021
v 0.6203448 1.009691 -0.6279021
v 0.6203444 1.208347 -0.3793831
v 0.6203442 1.009689 -0.3793841
v 0.6203439 1.208342 0.2332411
v 0.6203439 0.4693605 -0.627902
v 0.6203448 1.00969 0.2332411
v 0.6203437 0.4693605 -0.379385
v 0.6203437 1.208346 0.627162
v 0.6203438 1.40433 0.233241
v 0.6203437 1.40433 0.627162
v 0.6203443 0.1879555 -0.379385
v 0.6203439 0.4693611 0.2332402
v 0.6203444 0.1879545 -0.627902
v 0.6203442 1.00969 0.627162
v 0.6203446 0.4693607 0.8151218
v 0.6203462 1.00969 1.226527
v 0.6203467 0.4693611 1.226527
v 0.6203437 0.4693616 0.6271611
v 0.6203451 0.1879557 0.8151219
v 0.6203444 0.1879556 0.2332412
v 0.6203489 0.1879571 1.226528
v 0.6203444 0.1879547 0.6271622
v 0.2977598 1.208347 -0.6279002
v -0.2622554 1.208344 -0.6279021
v 0.297762 1.208344 -0.3793822
v 0.29776 1.208345 0.2332411
v -0.2622557 1.208345 0.2332392
v -0.2622559 1.208344 -0.3793831
v -0.6203442 1.208344 -0.6279021
v -0.6203442 1.208343 0.2332411
v -0.6203439 1.208344 -0.3793831
v 0.2977617 0.4693635 1.226528
v 0.2977614 1.00969 1.226525
v -0.2622547 1.009689 1.226528
v -0.2622561 0.4693616 1.226526
v -0.6203444 1.009689 1.226527
v -0.6203451 0.469363 1.226527
v -0.262253 1.396415 -0.6279022
v -0.6203432 1.396415 -0.6279022
v -0.6203446 1.404331 0.627162
v -0.2622566 1.40433 0.627162
v -0.6203442 1.404331 0.233241
v -0.2622547 1.404329 0.2332382
v 0.2977599 1.40433 0.627162
v 0.29776 1.404331 0.233241
v -0.6203442 0.4693605 -0.627902
v -0.6203439 0.187955 -0.627902
v -0.6203449 0.187956 -0.379384
v -0.6203442 1.009689 -0.6279021
v -0.6203449 0.4693615 -0.3793841
v -0.6203427 0.1879556 0.2332412
v -0.6203449 1.009689 -0.3793841
v -0.6203444 0.4693611 0.2332411
v -0.6203442 1.009689 0.2332411
v -0.6203439 0.1879556 0.6271622
v -0.6203446 0.4693616 0.6271621
v -0.6203423 0.1879552 0.8151219
v -0.6203442 1.00969 0.627162
v -0.6203437 0.4693612 0.8151218
v -0.6203446 0.1879585 1.226529
v -0.6203446 1.208347 0.627162

vt 0.6152574 0.4956611
vt 0.5599293 0.4956613
vt 0.5599294 0.5590856
vt 0.6152572 0.5590854
vt 0.6152574 0.669192
vt 0.5599293 0.6691919
vt 0.6152574 0.7395972
vt 0.5599291 0.7395972
vt 0.4475577 0.4956611
vt 0.4084994 0.4956611
vt 0.4084994 0.5590854
vt 0.4475576 0.5590854
vt 0.5537934 0.4956612
vt 0.5537938 0.5590855
vt 0.5537935 0.6691919
vt 0.4475576 0.6691918
vt 0.5537934 0.7395972
vt 0.4475579 0.7395971
vt 0.4084994 0.6691919
vt 0.4084993 0.7395971
vt 0.371522 0.7395967
vt 0.3715222 0.6691915
vt 0.2150448 0.4956611
vt 0.1759865 0.4956612
vt 0.1759866 0.5590855
vt 0.2150451 0.5590854
vt 0.2535782 0.4956612
vt 0.2150454 0.6691918
vt 0.1759866 0.6691921
vt 0.2535786 0.5590854
vt 0.2783632 0.4956611
vt 0.2783632 0.5590854
vt 0.2535782 0.6691918
vt 0.2150448 0.7395971
vt 0.1759865 0.7395971
vt 0.2535782 0.7395971
vt 0.1698511 0.5590853
vt 0.1698508 0.4956611
vt 0.1265374 0.4956611
vt 0.1265374 0.5590854
vt 0.1698508 0.6691918
vt 0.1265374 0.6691918
vt 0.1698512 0.7395971
vt 0.1265374 0.7395971
vt 0.9010913 0.001971107
vt 0.8577782 0.00197131
vt 0.8577776 0.06539591
vt 0.9010913 0.06539582
vt 0.956419 0.001971432
vt 0.9564198 0.0653963
vt 0.9564198 0.1755034
vt 0.9010916 0.175503
vt 0.9564201 0.2459083
vt 0.8577769 0.175503
vt 0.9010916 0.2459084
vt 0.8577769 0.2459086
vt 0.2593746 0.7435889
vt 0.2224185 0.7435886
vt 0.222419 0.8070129
vt 0.2593746 0.8070132
vt 0.8502985 0.03878126
vt 0.8502986 0.001971107
vt 0.7868744 0.001971107
vt 0.7868743 0.03878126
vt 0.8502986 0.08764341
vt 0.6767678 0.03878109
vt 0.6767679 0.001971107
vt 0.7868747 0.08764358
vt 0.8502985 0.2080935
vt 0.6063625 0.03878126
vt 0.6063626 0.001971107
vt 0.6767677 0.08764341
vt 0.6063628 0.08764341
vt 0.6063625 0.2080935
vt 0.7868743 0.2080935
vt 0.8502985 0.2855436
vt 0.6767677 0.2080935
vt 0.7868745 0.3224996
vt 0.8502987 0.3224995
vt 0.8502992 0.4033875
vt 0.6063631 0.3224995
vt 0.6063624 0.2855436
vt 0.6767681 0.3224995
vt 0.7868747 0.4033875
vt 0.8502994 0.4553734
vt 0.7868748 0.4553733
vt 0.6767677 0.4033875
vt 0.6063623 0.4033875
vt 0.6767677 0.4553733
vt 0.6063622 0.4553734
vt 0.06531049 0.4185633
vt 0.06531057 0.4553734
vt 0.1043689 0.4553734
vt 0.1043685 0.4185633
vt 0.06531008 0.3697011
vt 0.2106045 0.4553734
vt 0.1043689 0.3697013
vt 0.06531098 0.249251
vt 0.2106047 0.4185633
vt 0.1043687 0.249251
vt 0.2106047 0.3697014
vt 0.0653102 0.1718009
vt 0.02677724 0.249251
vt 0.02677713 0.1718009
vt 0.2659327 0.3697014
vt 0.2106046 0.2492512
vt 0.2659329 0.4185633
vt 0.1043687 0.1718009
vt 0.06531057 0.134845
vt 0.02677713 0.1348449
vt 0.001992032 0.171801
vt 0.001992235 0.134845
vt 0.1043689 0.1348457
vt 0.2106047 0.1348455
vt 0.1043687 0.05395766
vt 0.2106046 0.05395766
vt 0.2106045 0.171801
vt 0.2659327 0.1348455
vt 0.2659327 0.249251
vt 0.2659324 0.0539575
vt 0.2106043 0.001971757
vt 0.2659319 0.001971595
vt 0.3092456 0.05395701
vt 0.3092452 0.001971107
vt 0.3092466 0.134845
vt 0.2659329 0.1718009
vt 0.3092466 0.1718009
vt 0.3092466 0.249251
vt 0.3092467 0.3697011
vt 0.3092463 0.4185633
vt 0.3092462 0.4553734
vt 0.2659328 0.4553734
vt 0.2659328 0.4916696
vt 0.2106046 0.4916696
vt 0.8275151 0.5227892
vt 0.8275151 0.4593649
vt 0.7907049 0.4593651
vt 0.7907044 0.5227895
vt 0.8275151 0.6328957
vt 0.7907049 0.632896
vt 0.7418426 0.522789
vt 0.7418427 0.459365
vt 0.6213927 0.5227894
vt 0.6213927 0.4593651
vt 0.621393 0.6328961
vt 0.7418427 0.6328961
vt 0.7907049 0.7033011
vt 0.6213927 0.7033011
vt 0.7418427 0.703301
vt 0.9398863 0.459365
vt 0.8336504 0.4593649
vt 0.8336509 0.5227894
vt 0.9398863 0.5227895
vt 0.9398861 0.6328962
vt 0.8336506 0.6328965
vt 0.9398861 0.7033014
vt 0.8336508 0.7033016
vt 0.1695769 0.8139939
vt 0.1695769 0.7435886
vt 0.1327667 0.7435889
vt 0.1327667 0.8139942
vt 0.00599564 0.6691914
vt 0.00599564 0.7395967
vt 0.04295149 0.7395971
vt 0.04295149 0.6691922
vt 0.00599564 0.559085
vt 0.1204016 0.7395971
vt 0.1204021 0.6691918
vt 0.04295149 0.5590854
vt 0.1204016 0.5590854
vt 0.1204016 0.4956611
vt 0.04295149 0.4956611
vt 0.03828824 0.7435886
vt 0.001992032 0.7435887
vt 0.001992032 0.8070129
vt 0.03828824 0.8070129
vt 0.001992032 0.9171196
vt 0.03828824 0.9171193
vt 0.001992032 0.9875247
vt 0.03828824 0.9875246
vt 0.04506388 0.8070129
vt 0.08136009 0.7435887
vt 0.04506388 0.7435886
vt 0.08136009 0.8070131
vt 0.0450642 0.9171193
vt 0.08136041 0.9171193
vt 0.04506388 0.9875246
vt 0.08136009 0.9875247
vt 0.3592822 0.4553734
vt 0.3592822 0.4916696
vt 0.4146105 0.4916696
vt 0.4146105 0.4553734
vt 0.4146103 0.4185633
vt 0.3592822 0.4185633
vt 0.3159684 0.4553734
vt 0.3159684 0.4185633
vt 0.3159684 0.3697011
vt 0.3592824 0.3697013
vt 0.3159687 0.249251
vt 0.5208461 0.4185633
vt 0.5208459 0.4553734
vt 0.4146105 0.3697013
vt 0.3592823 0.249251
vt 0.3159682 0.1718009
vt 0.5599045 0.4185633
vt 0.5599046 0.4553734
vt 0.5968817 0.4185633
vt 0.5968819 0.4553734
vt 0.5208461 0.3697013
vt 0.5599043 0.3697011
vt 0.4146104 0.249251
vt 0.5208461 0.249251
vt 0.5599042 0.249251
vt 0.3592823 0.1718009
vt 0.3159684 0.134845
vt 0.4146105 0.1718009
vt 0.3592822 0.1348455
vt 0.3159687 0.05395701
vt 0.5208462 0.1718009
vt 0.4146104 0.1348455
vt 0.3592829 0.05395733
vt 0.3159686 0.001971107
vt 0.3592832 0.00197127
vt 0.4146107 0.05395766
vt 0.4146118 0.001971757
vt 0.5208461 0.1348457
vt 0.5208461 0.05395766
vt 0.5599049 0.1718009
vt 0.5599045 0.134845
vt 0.5984378 0.134845
vt 0.598438 0.1718009
vt 0.598438 0.249251
vt 0.1775927 0.8139941
vt 0.2145701 0.8139939
vt 0.2145699 0.7435886
vt 0.1775926 0.7435891
vt 0.2984277 0.743589
vt 0.2984277 0.7805662
vt 0.3352378 0.7805663
vt 0.3352378 0.7435892
vt 0.1264743 0.9171196
vt 0.08794083 0.9875246
vt 0.1264746 0.9875246
vt 0.08794121 0.9171194
vt 0.1264742 0.8070129
vt 0.08794083 0.8070129
vt 0.1264748 0.7435886
vt 0.08794103 0.7435886
vt 0.3653867 0.4956613
vt 0.2844987 0.4956611
vt 0.284499 0.5590855
vt 0.3653865 0.5590857
vt 0.2844985 0.6691923
vt 0.3653865 0.6691922
vt 0.2844987 0.7395976
vt 0.3653867 0.7395972
vt 0.2920295 0.743589
vt 0.2672445 0.743589
vt 0.2672446 0.8070133
vt 0.2920296 0.8070134
vt 0.3432536 0.7805449
vt 0.3680386 0.780545
vt 0.3680387 0.7435895
vt 0.343254 0.743589
vt 0.9980077 0.2499005
vt 0.9460217 0.2499001
vt 0.9460216 0.313325
vt 0.9980075 0.313325
vt 0.9460221 0.4234321
vt 0.998008 0.4234321
vt 0.9460217 0.493837
vt 0.9980077 0.4938372

vn -2.032879E-18 -2.118109E-07 -1
vn 1.478148E-06 -1.200161E-05 1
vn -7.391032E-07 1 6.342092E-07
vn 3.695455E-06 -1 -3.820362E-06
vn 0 0 0
vn 1 2.100301E-06 4.138712E-06
vn -1 -1.694478E-06 2.582991E-06

usemtl ArbustosE
f 70/76/4 73/79/4 72/78/4
f 75/81/5 76/82/5 68/74/5
f 3/3/1 2/2/1 1/1/1
f 1/1/1 4/4/1 3/3/1
f 3/3/1 4/4/1 5/5/1
f 5/5/1 6/6/1 3/3/1
f 6/6/1 5/5/1 7/7/1
f 7/7/1 8/8/1 6/6/1
f 11/11/1 10/10/1 9/9/1
f 9/9/1 12/12/1 11/11/1
f 12/12/1 9/9/1 13/13/1
f 13/13/1 14/14/1 12/12/1
f 12/12/1 14/14/1 15/15/1
f 15/15/1 16/16/1 12/12/1
f 11/11/1 12/12/1 16/16/1
f 16/16/1 19/19/1 11/11/1
f 16/16/1 15/15/1 17/17/1
f 17/17/1 18/18/1 16/16/1
f 19/19/1 16/16/1 18/18/1
f 18/18/1 20/20/1 19/19/1
f 19/19/1 20/20/1 21/21/1
f 21/21/1 22/22/1 19/19/1
f 25/25/2 24/24/2 23/23/2
f 23/23/2 26/26/2 25/25/2
f 26/26/2 23/23/2 27/27/2
f 27/27/2 30/30/2 26/26/2
f 25/25/2 26/26/2 28/28/2
f 28/28/2 29/29/2 25/25/2
f 28/28/2 26/26/2 30/30/2
f 30/30/2 33/33/2 28/28/2
f 30/30/2 27/27/2 31/31/2
f 31/31/2 32/32/2 30/30/2
f 29/29/2 28/28/2 34/34/2
f 34/34/2 35/35/2 29/29/2
f 34/34/2 28/28/2 33/33/2
f 33/33/2 36/36/2 34/34/2
f 39/39/1 38/38/1 37/37/1
f 37/37/1 40/40/1 39/39/1
f 40/40/1 37/37/1 41/41/1
f 41/41/1 42/42/1 40/40/1
f 42/42/1 41/41/1 43/43/1
f 43/43/1 44/44/1 42/42/1
f 47/47/2 46/46/2 45/45/2
f 45/45/2 48/48/2 47/47/2
f 48/48/2 45/45/2 49/49/2
f 49/49/2 50/50/2 48/48/2
f 48/48/2 50/50/2 51/51/2
f 51/51/2 52/52/2 48/48/2
f 47/47/2 48/48/2 52/52/2
f 52/52/2 54/54/2 47/47/2
f 52/52/2 51/51/2 53/53/2
f 53/53/2 55/55/2 52/52/2
f 54/54/2 52/52/2 55/55/2
f 55/55/2 56/56/2 54/54/2
f 32/59/3 31/58/3 57/57/3
f 57/57/3 58/60/3 32/59/3
f 37/63/4 38/62/4 59/61/4
f 59/61/4 60/64/4 37/63/4
f 60/64/4 59/61/4 61/65/4
f 61/65/4 63/68/4 60/64/4
f 37/63/4 60/64/4 62/66/4
f 62/66/4 41/67/4 37/63/4
f 62/66/4 60/64/4 63/68/4
f 63/68/4 66/72/4 62/66/4
f 63/68/4 61/65/4 64/69/4
f 64/69/4 69/75/4 63/68/4
f 41/67/4 62/66/4 65/70/4
f 65/70/4 43/71/4 41/67/4
f 65/70/4 62/66/4 66/72/4
f 66/72/4 67/73/4 65/70/4
f 68/74/4 67/73/4 66/72/4
f 66/72/4 71/77/4 68/74/4
f 69/75/4 64/69/4 70/76/4
f 70/76/4 72/78/4 69/75/4
f 71/77/4 66/72/4 63/68/4
f 63/68/4 69/75/4 71/77/4
f 72/78/4 73/79/4 74/80/4
f 74/80/4 78/84/4 72/78/4
f 75/81/4 68/74/4 71/77/4
f 71/77/4 77/83/4 75/81/4
f 77/83/4 71/77/4 69/75/4
f 69/75/4 72/78/4 77/83/4
f 77/83/4 72/78/4 78/84/4
f 78/84/4 79/87/4 77/83/4
f 78/84/4 74/80/4 46/85/4
f 46/85/4 47/86/4 78/84/4
f 75/81/4 77/83/4 79/87/4
f 79/87/4 80/88/4 75/81/4
f 79/87/4 78/84/4 47/86/4
f 47/86/4 54/89/4 79/87/4
f 80/88/4 79/87/4 54/89/4
f 54/89/4 56/90/4 80/88/4
f 9/93/6 10/92/6 81/91/6
f 81/91/6 82/94/6 9/93/6
f 82/94/6 81/91/6 83/95/6
f 83/95/6 84/97/6 82/94/6
f 13/96/6 9/93/6 82/94/6
f 82/94/6 86/99/6 13/96/6
f 84/97/6 83/95/6 85/98/6
f 85/98/6 87/100/6 84/97/6
f 86/99/6 82/94/6 84/97/6
f 84/97/6 88/101/6 86/99/6
f 88/101/6 84/97/6 87/100/6
f 87/100/6 93/106/6 88/101/6
f 87/100/6 85/98/6 89/102/6
f 89/102/6 95/108/6 87/100/6
f 89/102/6 85/98/6 90/103/6
f 90/103/6 91/104/6 89/102/6
f 86/99/6 88/101/6 92/105/6
f 92/105/6 94/107/6 86/99/6
f 92/105/6 88/101/6 93/106/6
f 93/106/6 101/119/6 92/105/6
f 13/96/6 86/99/6 94/107/6
f 94/107/6 39/132/6 13/96/6
f 93/106/6 87/100/6 95/108/6
f 95/108/6 99/117/6 93/106/6
f 23/109/6 89/102/6 91/104/6
f 91/104/6 27/110/6 23/109/6
f 27/110/6 91/104/6 57/111/6
f 57/111/6 31/112/6 27/110/6
f 89/102/6 23/109/6 24/113/6
f 24/113/6 95/108/6 89/102/6
f 95/108/6 24/113/6 96/114/6
f 96/114/6 99/117/6 95/108/6
f 96/114/6 24/113/6 97/115/6
f 97/115/6 98/116/6 96/114/6
f 100/118/6 96/114/6 98/116/6
f 98/116/6 102/120/6 100/118/6
f 99/117/6 96/114/6 100/118/6
f 100/118/6 103/126/6 99/117/6
f 101/119/6 93/106/6 99/117/6
f 99/117/6 103/126/6 101/119/6
f 102/120/6 98/116/6 49/121/6
f 49/121/6 45/122/6 102/120/6
f 74/123/6 102/120/6 45/122/6
f 45/122/6 46/124/6 74/123/6
f 102/120/6 74/123/6 73/125/6
f 73/125/6 100/118/6 102/120/6
f 103/126/6 100/118/6 73/125/6
f 73/125/6 70/127/6 103/126/6
f 103/126/6 70/127/6 64/128/6
f 64/128/6 101/119/6 103/126/6
f 101/119/6 64/128/6 61/129/6
f 61/129/6 92/105/6 101/119/6
f 92/105/6 61/129/6 59/130/6
f 59/130/6 94/107/6 92/105/6
f 94/107/6 59/130/6 38/131/6
f 38/131/6 39/132/6 94/107/6
f 13/96/6 39/132/6 1/133/6
f 1/133/6 2/134/6 13/96/6
f 81/137/3 10/136/3 11/135/3
f 11/135/3 104/138/3 81/137/3
f 104/138/3 11/135/3 19/139/3
f 19/139/3 105/140/3 104/138/3
f 81/137/3 104/138/3 106/141/3
f 106/141/3 83/142/3 81/137/3
f 106/141/3 104/138/3 105/140/3
f 105/140/3 109/146/3 106/141/3
f 83/142/3 106/141/3 107/143/3
f 107/143/3 85/144/3 83/142/3
f 108/145/3 107/143/3 106/141/3
f 106/141/3 109/146/3 108/145/3
f 109/146/3 105/140/3 110/147/3
f 110/147/3 112/149/3 109/146/3
f 111/148/3 108/145/3 109/146/3
f 109/146/3 112/149/3 111/148/3
f 113/152/2 98/151/2 97/150/2
f 97/150/2 114/153/2 113/152/2
f 113/152/2 114/153/2 115/154/2
f 115/154/2 116/155/2 113/152/2
f 116/155/2 115/154/2 117/156/2
f 117/156/2 118/157/2 116/155/2
f 119/160/3 22/159/3 21/158/3
f 21/158/3 120/161/3 119/160/3
f 121/164/3 36/163/3 33/162/3
f 33/162/3 122/165/3 121/164/3
f 122/165/3 33/162/3 30/166/3
f 30/166/3 125/169/3 122/165/3
f 123/167/3 121/164/3 122/165/3
f 122/165/3 124/168/3 123/167/3
f 124/168/3 122/165/3 125/169/3
f 125/169/3 126/170/3 124/168/3
f 90/171/3 126/170/3 125/169/3
f 125/169/3 91/172/3 90/171/3
f 4/175/4 1/174/4 39/173/4
f 39/173/4 40/176/4 4/175/4
f 5/177/4 4/175/4 40/176/4
f 40/176/4 42/178/4 5/177/4
f 7/179/4 5/177/4 42/178/4
f 42/178/4 44/180/4 7/179/4
f 14/181/3 13/183/3 2/182/3
f 2/182/3 3/184/3 14/181/3
f 15/185/3 14/181/3 3/184/3
f 3/184/3 6/186/3 15/185/3
f 17/187/3 15/185/3 6/186/3
f 6/186/3 8/188/3 17/187/3
f 8/191/7 7/190/7 44/189/7
f 44/189/7 17/192/7 8/191/7
f 127/193/7 17/192/7 44/189/7
f 44/189/7 128/194/7 127/193/7
f 128/194/7 44/189/7 43/195/7
f 43/195/7 65/196/7 128/194/7
f 128/194/7 65/196/7 67/197/7
f 67/197/7 129/198/7 128/194/7
f 127/193/7 128/194/7 129/198/7
f 129/198/7 131/202/7 127/193/7
f 129/198/7 67/197/7 68/199/7
f 68/199/7 132/203/7 129/198/7
f 17/192/7 127/193/7 130/200/7
f 130/200/7 18/201/7 17/192/7
f 130/200/7 127/193/7 131/202/7
f 131/202/7 133/209/7 130/200/7
f 131/202/7 129/198/7 132/203/7
f 132/203/7 134/211/7 131/202/7
f 132/203/7 68/199/7 76/204/7
f 76/204/7 136/214/7 132/203/7
f 18/201/7 130/200/7 110/205/7
f 110/205/7 20/206/7 18/201/7
f 20/206/7 110/205/7 120/207/7
f 120/207/7 21/208/7 20/206/7
f 110/205/7 130/200/7 133/209/7
f 133/209/7 112/210/7 110/205/7
f 133/209/7 131/202/7 134/211/7
f 134/211/7 135/212/7 133/209/7
f 112/210/7 133/209/7 135/212/7
f 135/212/7 111/213/7 112/210/7
f 136/214/7 76/204/7 75/215/7
f 75/215/7 138/217/7 136/214/7
f 137/216/7 134/211/7 132/203/7
f 132/203/7 136/214/7 137/216/7
f 135/212/7 134/211/7 137/216/7
f 137/216/7 139/219/7 135/212/7
f 138/217/7 75/215/7 80/218/7
f 80/218/7 141/221/7 138/217/7
f 111/213/7 135/212/7 139/219/7
f 139/219/7 142/228/7 111/213/7
f 140/220/7 137/216/7 136/214/7
f 136/214/7 138/217/7 140/220/7
f 139/219/7 137/216/7 140/220/7
f 140/220/7 35/226/7 139/219/7
f 140/220/7 138/217/7 141/221/7
f 141/221/7 118/224/7 140/220/7
f 141/221/7 80/218/7 56/222/7
f 56/222/7 55/223/7 141/221/7
f 118/224/7 141/221/7 55/223/7
f 55/223/7 53/225/7 118/224/7
f 35/226/7 140/220/7 118/224/7
f 118/224/7 117/227/7 35/226/7
f 142/228/7 139/219/7 35/226/7
f 35/226/7 34/229/7 142/228/7
f 142/228/7 34/229/7 36/230/7
f 36/230/7 121/231/7 142/228/7
f 111/213/7 142/228/7 121/231/7
f 121/231/7 123/232/7 111/213/7
f 119/235/2 120/234/2 110/233/2
f 110/233/2 105/236/2 119/235/2
f 22/239/6 119/238/6 105/237/6
f 105/237/6 19/240/6 22/239/6
f 108/241/1 111/243/1 123/242/1
f 123/242/1 124/244/1 108/241/1
f 107/245/1 108/241/1 124/244/1
f 124/244/1 126/246/1 107/245/1
f 85/247/1 107/245/1 126/246/1
f 126/246/1 90/248/1 85/247/1
f 114/251/3 97/250/3 24/249/3
f 24/249/3 25/252/3 114/251/3
f 115/253/3 114/251/3 25/252/3
f 25/252/3 29/254/3 115/253/3
f 117/255/3 115/253/3 29/254/3
f 29/254/3 35/256/3 117/255/3
f 58/259/1 57/258/1 91/257/1
f 91/257/1 125/260/1 58/259/1
f 32/263/7 58/262/7 125/261/7
f 125/261/7 30/264/7 32/263/7
f 50/267/3 49/266/3 98/265/3
f 98/265/3 113/268/3 50/267/3
f 51/269/3 50/267/3 113/268/3
f 113/268/3 116/270/3 51/269/3
f 53/271/3 51/269/3 116/270/3
f 116/270/3 118/272/3 53/271/3

