# ProBuilder 4.2.3
# https://unity3d.com/unity/features/worldbuilding/probuilder
# 27/05/2020 18:55:40

mtllib ./Arbusto_1.mtl
o Arbusto 1

g Arbusto 1
v 0.2460644 0.3106279 0.5988077
v 0.2460644 0.2726201 0.5988078
v 0.1502046 0.2726201 0.5988078
v 0.1502046 0.3106279 0.5988077
v 0.08530379 0.2726201 0.5988071
v 0.08530403 0.3106279 0.5988077
v 0.1502042 0.5757183 0.3857849
v 0.2460641 0.5757183 0.3857849
v 0.2460641 0.5757183 0.4284986
v 0.1502044 0.5757183 0.4284983
v 0.1502042 0.535945 -0.3964982
v 0.2460641 0.535945 -0.3964978
v 0.2460639 0.5359451 -0.3493092
v 0.1502042 0.5359451 -0.3493096
v 0.08530403 0.535945 -0.3964986
v 0.2460641 0.5359451 -0.05851603
v 0.08530425 0.5359451 -0.3493092
v -0.1541348 0.535945 -0.3964986
v 0.1502044 0.5359451 -0.05851531
v 0.1502044 0.5359451 0.002162933
v 0.2460639 0.5359451 0.002162933
v 0.1502042 0.535945 0.385785
v 0.2460641 0.535945 0.385785
v 0.08530403 0.535945 0.385785
v 0.1502044 0.5359451 0.4284983
v 0.08530403 0.535945 0.4284979
v 0.08530403 0.5359451 0.002162933
v 0.08530403 0.5359451 -0.05851567
v -0.1541346 0.5359451 -0.3493096
v -0.1541348 0.535945 0.385785
v -0.1541346 0.535945 0.4284979
v -0.2460644 0.535945 0.4284979
v -0.2460644 0.535945 0.385785
v -0.1541348 0.5359451 0.002162933
v -0.2460641 0.5359451 0.002162933
v -0.1541346 0.5359451 -0.05851567
v -0.2460644 0.5359451 -0.05851567
v -0.2460641 0.5359451 -0.3493092
v -0.2460641 0.535945 -0.3964986
v 0.08530403 0.2726201 0.5683048
v -0.154135 0.3106279 0.5683043
v 0.08530403 0.3106279 0.5683047
v -0.154135 0.2726201 0.5683043
v 0.08530403 0.03955901 0.5683047
v -0.154135 0.03955901 0.5683044
v 0.1502046 0.2726201 0.5683048
v 0.08530403 -0.01594567 0.5683047
v -0.154135 -0.01594567 0.5683044
v 0.1502046 0.03955901 0.5683047
v 0.2460641 0.2726201 0.5683043
v 0.1502042 -0.01594567 0.5683044
v 0.2460641 0.03955901 0.5683044
v 0.2460639 -0.01594567 0.5683044
v -0.2460641 -0.01594579 0.3857849
v -0.2460644 -0.01594567 0.4284979
v -0.1541346 -0.01594567 0.4284979
v -0.1541346 -0.01594579 0.3857849
v -0.2460641 -0.01594567 0.002162933
v -0.1541348 -0.01594567 0.002162933
v -0.2460641 -0.01594573 -0.05851567
v -0.1541346 -0.01594573 -0.05851567
v -0.2460641 -0.0159457 -0.3493092
v -0.1541346 -0.0159457 -0.3493092
v -0.2460641 -0.01594567 -0.3964986
v -0.1541348 -0.01594567 -0.3964986
v 0.08530403 -0.01594567 -0.3964986
v 0.08530403 -0.0159457 -0.3493092
v 0.1502042 -0.0159457 -0.3964982
v 0.08530403 -0.01594573 -0.05851567
v 0.08530403 -0.01594567 0.002162933
v 0.1502042 -0.01594573 -0.3493088
v 0.2460641 -0.01594573 -0.3964978
v 0.2460636 -0.0159457 -0.3493092
v 0.2460644 -0.01594573 -0.05851531
v 0.1502044 -0.01594573 -0.05851531
v 0.2460636 -0.01594567 0.002162933
v 0.1502044 -0.01594567 0.002162933
v 0.08530403 -0.01594579 0.3857849
v 0.1502044 -0.01594579 0.3857849
v 0.2460639 -0.01594567 0.3857845
v 0.2460642 -0.01594567 0.4284986
v 0.08530403 -0.01594567 0.4284979
v 0.1502044 -0.01594567 0.4284983
v -0.2460641 0.5855227 0.002162933
v -0.2460644 0.5855227 -0.05851567
v -0.1541346 0.5855227 -0.05851567
v -0.1541348 0.5855227 0.002162933
v -0.1541346 0.03955901 0.4284979
v -0.2460644 0.03955901 0.4284979
v -0.1541346 0.27262 0.4284979
v -0.2460644 0.27262 0.4284979
v -0.1541346 0.310628 0.4284979
v -0.2460644 0.310628 0.4284979
v 0.08530403 0.310628 0.4284979
v 0.1502044 0.310628 0.4284983
v 0.2460641 0.310628 0.4284986
v 0.2460641 0.5359451 0.4284986
v 0.2460636 0.03955895 0.002162933
v 0.2460639 0.03955889 0.3857845
v 0.2460639 0.27262 0.002162993
v 0.2460641 0.27262 0.3857849
v 0.2460639 0.3106279 0.002162993
v 0.2460641 0.3106279 0.3857849
v 0.2460641 0.03955901 0.4284986
v 0.2460641 0.27262 0.4284986
v 0.2460641 0.3106279 0.5683043
v 0.2460641 0.03955895 -0.3964978
v 0.2460636 0.03955898 -0.3493092
v 0.2460641 0.27262 -0.3964978
v 0.2460639 0.27262 -0.3493092
v 0.2460641 0.310628 -0.3964978
v 0.2460644 0.03955895 -0.05851531
v 0.2460641 0.27262 -0.05851609
v 0.2460639 0.310628 -0.3493092
v 0.2460641 0.310628 -0.05851609
v 0.1502042 0.03955898 -0.3964982
v 0.1502042 0.27262 -0.3964982
v 0.08530403 0.03955901 -0.3964986
v 0.08530403 0.27262 -0.3964986
v 0.1502042 0.310628 -0.3964982
v -0.1541348 0.03955901 -0.3964986
v 0.08530403 0.310628 -0.3964986
v -0.2460641 0.03955901 -0.3964986
v -0.2460641 0.27262 -0.3964986
v -0.1541348 0.27262 -0.3964986
v -0.2460641 0.310628 -0.3964986
v -0.1541348 0.310628 -0.3964986
v -0.2460641 0.03955901 0.3857849
v -0.2460644 0.27262 0.3857849
v -0.2460641 0.03955895 0.002162933
v -0.2460641 0.03955895 -0.05851573
v -0.2460641 0.27262 0.002162993
v -0.2460644 0.3106279 0.3857849
v -0.2460641 0.03955898 -0.3493092
v -0.2460641 0.3106279 0.002162993
v -0.2460641 0.27262 -0.05851573
v -0.2460639 0.27262 -0.3493092
v -0.2460644 0.310628 -0.05851573
v -0.2460639 0.310628 -0.3493092
v 0.1502046 0.3106279 0.5683047

vt 0.5071004 0.6644555
vt 0.4855271 0.6644555
vt 0.4855271 0.7254726
vt 0.5071004 0.7254726
vt 0.4855271 0.7667837
vt 0.5071004 0.7667835
vt 0.5504694 0.7254727
vt 0.5504694 0.6644555
vt 0.534251 0.6644555
vt 0.5342511 0.7254726
vt 0.9980079 0.4026642
vt 0.9980077 0.341647
vt 0.9800901 0.3416471
vt 0.9800903 0.4026642
vt 0.998008 0.4439749
vt 0.8696757 0.341647
vt 0.9800901 0.4439747
vt 0.998008 0.5963837
vt 0.8696754 0.4026641
vt 0.8466358 0.4026641
vt 0.8466358 0.3416471
vt 0.7009741 0.4026642
vt 0.7009741 0.341647
vt 0.7009741 0.4439749
vt 0.6847559 0.4026641
vt 0.684756 0.4439749
vt 0.8466358 0.4439749
vt 0.8696756 0.4439749
vt 0.9800903 0.5963836
vt 0.7009741 0.5963837
vt 0.684756 0.5963836
vt 0.684756 0.6548991
vt 0.7009741 0.6548991
vt 0.8466358 0.5963837
vt 0.8466358 0.654899
vt 0.8696756 0.5963836
vt 0.8696756 0.6548991
vt 0.9800901 0.654899
vt 0.998008 0.654899
vt 0.1801527 0.4744844
vt 0.2017259 0.6268935
vt 0.2017259 0.4744844
vt 0.1801527 0.6268935
vt 0.04786768 0.4744844
vt 0.04786768 0.6268935
vt 0.1801527 0.4331736
vt 0.01636334 0.4744844
vt 0.01636334 0.6268935
vt 0.04786768 0.4331736
vt 0.1801527 0.3721566
vt 0.01636334 0.4331739
vt 0.04786768 0.3721566
vt 0.01636334 0.3721568
vt 0.001992193 0.2988622
vt 0.001992041 0.3150803
vt 0.06050768 0.3150803
vt 0.06050768 0.2988622
vt 0.001992193 0.1532005
vt 0.06050753 0.1532005
vt 0.001992193 0.1301607
vt 0.06050768 0.1301607
vt 0.001992193 0.01974608
vt 0.06050768 0.01974608
vt 0.001992193 0.001828247
vt 0.06050753 0.001828247
vt 0.2129164 0.001828247
vt 0.2129164 0.01974608
vt 0.254227 0.001828398
vt 0.2129164 0.1301607
vt 0.2129164 0.1532005
vt 0.254227 0.01974623
vt 0.3152443 0.001828549
vt 0.315244 0.01974608
vt 0.3152444 0.1301609
vt 0.2542271 0.1301609
vt 0.315244 0.1532005
vt 0.2542271 0.1532005
vt 0.2129164 0.2988622
vt 0.2542271 0.2988622
vt 0.3152441 0.298862
vt 0.3152443 0.3150806
vt 0.2129164 0.3150803
vt 0.2129164 0.3681652
vt 0.06050738 0.368165
vt 0.2542271 0.3150805
vt 0.3152441 0.368165
vt 0.254227 0.368165
vt 0.5868726 0.7229709
vt 0.6099124 0.7229711
vt 0.6099124 0.6644555
vt 0.5868726 0.6644556
vt 0.6414434 0.001828237
vt 0.699959 0.03333259
vt 0.699959 0.001828237
vt 0.6414434 0.03333259
vt 0.699959 0.1656176
vt 0.6414434 0.1656176
vt 0.699959 0.1871908
vt 0.6414434 0.1871908
vt 0.699959 0.3150803
vt 0.6414434 0.3150803
vt 0.8523677 0.1871908
vt 0.8523677 0.3150803
vt 0.8936784 0.1871908
vt 0.8936784 0.3150803
vt 0.9546956 0.1871908
vt 0.9546956 0.3150803
vt 0.9546956 0.3376555
vt 0.8936784 0.3376555
vt 0.1058025 0.6894001
vt 0.07429816 0.6894001
vt 0.07429816 0.8350616
vt 0.1058025 0.8350616
vt 0.2380875 0.6894001
vt 0.07429816 0.8512802
vt 0.2380875 0.8350618
vt 0.2596608 0.6894001
vt 0.2596608 0.8350618
vt 0.1058025 0.8512802
vt 0.2380875 0.8512802
vt 0.2596608 0.8512802
vt 0.2380875 0.9043646
vt 0.2596608 0.9043646
vt 0.2596608 0.9159468
vt 0.2380875 0.9159468
vt 0.1058025 0.9043646
vt 0.07429816 0.9043646
vt 0.3592331 0.4036609
vt 0.3592331 0.3721566
vt 0.3413156 0.3721566
vt 0.3413156 0.4036609
vt 0.3592331 0.5359459
vt 0.2309008 0.3721566
vt 0.3413156 0.5359459
vt 0.3592331 0.5575191
vt 0.2309008 0.4036609
vt 0.2078612 0.3721566
vt 0.2078612 0.4036609
vt 0.2309011 0.5359459
vt 0.2078612 0.5359459
vt 0.3413156 0.5575191
vt 0.2309011 0.5575191
vt 0.2078612 0.5575191
vt 0.2078612 0.6854087
vt 0.2309011 0.6854087
vt 0.3413156 0.6854087
vt 0.3592331 0.6854087
vt 0.6176032 0.660464
vt 0.6786206 0.660464
vt 0.6786206 0.6289597
vt 0.6176032 0.6289597
vt 0.5762927 0.660464
vt 0.6176032 0.4966747
vt 0.6786206 0.4966747
vt 0.5762927 0.6289597
vt 0.4238838 0.660464
vt 0.5762927 0.4966747
vt 0.6176032 0.4751014
vt 0.6786206 0.4751014
vt 0.4238838 0.6289597
vt 0.5762927 0.4751014
vt 0.6176032 0.3472119
vt 0.6786206 0.3472119
vt 0.5762927 0.3472119
vt 0.3653684 0.6289597
vt 0.3653684 0.660464
vt 0.3653684 0.4966747
vt 0.4238838 0.4966747
vt 0.3653684 0.4751014
vt 0.4238838 0.4751014
vt 0.4238838 0.3472119
vt 0.3653684 0.3472119
vt 0.6350672 0.03333259
vt 0.6350672 0.001828237
vt 0.618849 0.001828237
vt 0.618849 0.03333259
vt 0.6350672 0.1656176
vt 0.4731874 0.001828237
vt 0.618849 0.1656176
vt 0.6350672 0.1871908
vt 0.4731874 0.03333259
vt 0.4501476 0.001828237
vt 0.4501476 0.03333259
vt 0.339733 0.001828237
vt 0.4731874 0.1656176
vt 0.618849 0.1871908
vt 0.339733 0.03333259
vt 0.3218151 0.001828237
vt 0.3218151 0.03333259
vt 0.618849 0.3150803
vt 0.6350672 0.3150803
vt 0.4731874 0.3150803
vt 0.4731874 0.1871908
vt 0.4501476 0.1656176
vt 0.339733 0.1656176
vt 0.3218151 0.1656176
vt 0.4501476 0.3150803
vt 0.4731874 0.3432204
vt 0.4501476 0.3432204
vt 0.4501476 0.1871908
vt 0.339733 0.3150803
vt 0.339733 0.1871908
vt 0.3218151 0.1871908
vt 0.3218151 0.3150803
vt 0.7155036 0.6588907
vt 0.7155036 0.6814659
vt 0.7317218 0.6814659
vt 0.7317218 0.6588907
vt 0.327662 0.8172895
vt 0.327662 0.8398649
vt 0.3438804 0.8398649
vt 0.3438804 0.8172895
vt 0.327662 0.6894001
vt 0.3438804 0.6894001
vt 0.5802135 0.6644554
vt 0.5576384 0.6644554
vt 0.5576384 0.7254726
vt 0.5802135 0.7254726
vt 0.6161069 0.7229708
vt 0.6442471 0.7229708
vt 0.6442471 0.6644555
vt 0.6161069 0.6644555
vt 0.6862692 0.6588907
vt 0.6862692 0.6870309
vt 0.709309 0.6870309
vt 0.709309 0.6588907
vt 0.6793283 0.6644554
vt 0.6511881 0.6644554
vt 0.6511881 0.7229711
vt 0.6793283 0.7229711
vt 0.478939 0.8350618
vt 0.478939 0.6894001
vt 0.3510494 0.6894001
vt 0.3510494 0.8350618
vt 0.01357401 0.7332129
vt 0.01357416 0.885622
vt 0.06665889 0.8856217
vt 0.06665889 0.7332129
vt 0.06665874 0.6919023
vt 0.01357401 0.6919021
vt 0.06665859 0.6308851
vt 0.001992032 0.7332129
vt 0.01357416 0.6308851
vt 0.001992032 0.6919021
vt 0.001992032 0.6308849
vt 0.2672445 0.8747627
vt 0.3203292 0.8747627
vt 0.3203292 0.8531894
vt 0.2672445 0.8531894
vt 0.2672445 0.7209044
vt 0.3203292 0.7209044
vt 0.3203292 0.6894001
vt 0.2672445 0.6894001
vt 0.5147616 0.7254726
vt 0.5263436 0.6644555
vt 0.5147614 0.6644556
vt 0.5263436 0.7254726
vt 0.5147616 0.7667835
vt 0.5263433 0.7667837
vt 0.7388909 0.6804639
vt 0.7504729 0.6804639
vt 0.7504726 0.6588907
vt 0.7388909 0.6588907
vt 2.070606 4.590514E-41

vn 0 3.136438E-06 1
vn 0 1 0
vn 0 -1 2.790934E-06
vn 0 0 0
vn 1 0 -6.214942E-07
vn 4.352522E-06 -1.752761E-12 -1
vn -1 0 -5.581868E-06

usemtl ArbustoA
f 79/79/3 80/80/3 81/81/3
f 81/81/4 83/85/4 82/82/4
f 80/264/4 81/264/4 81/264/4
f 81/264/4 81/264/4 53/264/4
f 3/3/1 2/2/1 1/1/1
f 1/1/1 4/4/1 3/3/1
f 5/5/1 3/3/1 4/4/1
f 4/4/1 6/6/1 5/5/1
f 9/9/2 8/8/2 7/7/2
f 7/7/2 10/10/2 9/9/2
f 13/13/2 12/12/2 11/11/2
f 11/11/2 14/14/2 13/13/2
f 14/14/2 11/11/2 15/15/2
f 15/15/2 17/17/2 14/14/2
f 16/16/2 13/13/2 14/14/2
f 14/14/2 19/19/2 16/16/2
f 17/17/2 15/15/2 18/18/2
f 18/18/2 29/29/2 17/17/2
f 19/19/2 14/14/2 17/17/2
f 17/17/2 28/28/2 19/19/2
f 16/16/2 19/19/2 20/20/2
f 20/20/2 21/21/2 16/16/2
f 21/21/2 20/20/2 22/22/2
f 22/22/2 23/23/2 21/21/2
f 24/24/2 22/22/2 20/20/2
f 20/20/2 27/27/2 24/24/2
f 25/25/2 22/22/2 24/24/2
f 24/24/2 26/26/2 25/25/2
f 27/27/2 20/20/2 19/19/2
f 19/19/2 28/28/2 27/27/2
f 28/28/2 17/17/2 29/29/2
f 29/29/2 36/36/2 28/28/2
f 26/26/2 24/24/2 30/30/2
f 30/30/2 31/31/2 26/26/2
f 32/32/2 31/31/2 30/30/2
f 30/30/2 33/33/2 32/32/2
f 34/34/2 30/30/2 24/24/2
f 24/24/2 27/27/2 34/34/2
f 33/33/2 30/30/2 34/34/2
f 34/34/2 35/35/2 33/33/2
f 36/36/2 34/34/2 27/27/2
f 27/27/2 28/28/2 36/36/2
f 37/37/2 36/36/2 29/29/2
f 29/29/2 38/38/2 37/37/2
f 38/38/2 29/29/2 18/18/2
f 18/18/2 39/39/2 38/38/2
f 40/40/1 42/42/1 41/41/1
f 41/41/1 43/43/1 40/40/1
f 44/44/1 40/40/1 43/43/1
f 43/43/1 45/45/1 44/44/1
f 46/46/1 40/40/1 44/44/1
f 44/44/1 49/49/1 46/46/1
f 47/47/1 44/44/1 45/45/1
f 45/45/1 48/48/1 47/47/1
f 49/49/1 44/44/1 47/47/1
f 47/47/1 51/51/1 49/49/1
f 50/50/1 46/46/1 49/49/1
f 49/49/1 52/52/1 50/50/1
f 52/52/1 49/49/1 51/51/1
f 51/51/1 53/53/1 52/52/1
f 56/56/3 55/55/3 54/54/3
f 54/54/3 57/57/3 56/56/3
f 57/57/3 54/54/3 58/58/3
f 58/58/3 59/59/3 57/57/3
f 59/59/3 58/58/3 60/60/3
f 60/60/3 61/61/3 59/59/3
f 61/61/3 60/60/3 62/62/3
f 62/62/3 63/63/3 61/61/3
f 63/63/3 62/62/3 64/64/3
f 64/64/3 65/65/3 63/63/3
f 63/63/3 65/65/3 66/66/3
f 66/66/3 67/67/3 63/63/3
f 61/61/3 63/63/3 67/67/3
f 67/67/3 69/69/3 61/61/3
f 67/67/3 66/66/3 68/68/3
f 68/68/3 71/71/3 67/67/3
f 59/59/3 61/61/3 69/69/3
f 69/69/3 70/70/3 59/59/3
f 57/57/3 59/59/3 70/70/3
f 70/70/3 78/78/3 57/57/3
f 71/71/3 68/68/3 72/72/3
f 72/72/3 73/73/3 71/71/3
f 71/71/3 73/73/3 74/74/3
f 74/74/3 75/75/3 71/71/3
f 67/67/3 71/71/3 75/75/3
f 75/75/3 69/69/3 67/67/3
f 75/75/3 74/74/3 76/76/3
f 76/76/3 77/77/3 75/75/3
f 69/69/3 75/75/3 77/77/3
f 77/77/3 70/70/3 69/69/3
f 78/78/3 70/70/3 77/77/3
f 77/77/3 79/79/3 78/78/3
f 56/56/3 57/57/3 78/78/3
f 78/78/3 82/82/3 56/56/3
f 79/79/3 77/77/3 76/76/3
f 76/76/3 80/80/3 79/79/3
f 82/82/3 78/78/3 79/79/3
f 79/79/3 81/81/3 82/82/3
f 56/56/3 82/82/3 47/83/3
f 47/83/3 48/84/3 56/56/3
f 47/83/3 82/82/3 83/85/3
f 83/85/3 51/87/3 47/83/3
f 83/85/3 81/81/3 53/86/3
f 53/86/3 51/87/3 83/85/3
f 86/90/2 85/89/2 84/88/2
f 84/88/2 87/91/2 86/90/2
f 55/92/1 56/94/1 88/93/1
f 88/93/1 89/95/1 55/92/1
f 89/95/1 88/93/1 90/96/1
f 90/96/1 91/97/1 89/95/1
f 91/97/1 90/96/1 92/98/1
f 92/98/1 93/99/1 91/97/1
f 93/99/1 92/98/1 31/100/1
f 31/100/1 32/101/1 93/99/1
f 31/100/1 92/98/1 94/102/1
f 94/102/1 26/103/1 31/100/1
f 26/103/1 94/102/1 95/104/1
f 95/104/1 25/105/1 26/103/1
f 25/105/1 95/104/1 96/106/1
f 96/106/1 97/107/1 25/105/1
f 25/105/1 97/107/1 9/108/1
f 9/108/1 10/109/1 25/105/1
f 80/112/5 76/111/5 98/110/5
f 98/110/5 99/113/5 80/112/5
f 99/113/5 98/110/5 100/114/5
f 100/114/5 101/116/5 99/113/5
f 81/115/5 80/112/5 99/113/5
f 99/113/5 104/119/5 81/115/5
f 101/116/5 100/114/5 102/117/5
f 102/117/5 103/118/5 101/116/5
f 104/119/5 99/113/5 101/116/5
f 101/116/5 105/120/5 104/119/5
f 105/120/5 101/116/5 103/118/5
f 103/118/5 96/121/5 105/120/5
f 50/122/5 105/120/5 96/121/5
f 96/121/5 106/123/5 50/122/5
f 104/119/5 105/120/5 50/122/5
f 50/122/5 52/126/5 104/119/5
f 50/122/5 106/123/5 1/124/5
f 1/124/5 2/125/5 50/122/5
f 81/115/5 104/119/5 52/126/5
f 52/126/5 53/127/5 81/115/5
f 73/130/5 72/129/5 107/128/5
f 107/128/5 108/131/5 73/130/5
f 108/131/5 107/128/5 109/132/5
f 109/132/5 110/134/5 108/131/5
f 74/133/5 73/130/5 108/131/5
f 108/131/5 112/136/5 74/133/5
f 110/134/5 109/132/5 111/135/5
f 111/135/5 114/141/5 110/134/5
f 112/136/5 108/131/5 110/134/5
f 110/134/5 113/139/5 112/136/5
f 76/137/5 74/133/5 112/136/5
f 112/136/5 98/138/5 76/137/5
f 98/138/5 112/136/5 113/139/5
f 113/139/5 100/140/5 98/138/5
f 113/139/5 110/134/5 114/141/5
f 114/141/5 115/142/5 113/139/5
f 100/140/5 113/139/5 115/142/5
f 115/142/5 102/143/5 100/140/5
f 21/144/5 102/143/5 115/142/5
f 115/142/5 16/145/5 21/144/5
f 16/145/5 115/142/5 114/141/5
f 114/141/5 13/146/5 16/145/5
f 13/146/5 114/141/5 111/135/5
f 111/135/5 12/147/5 13/146/5
f 107/150/6 72/149/6 68/148/6
f 68/148/6 116/151/6 107/150/6
f 116/151/6 68/148/6 66/152/6
f 66/152/6 118/155/6 116/151/6
f 107/150/6 116/151/6 117/153/6
f 117/153/6 109/154/6 107/150/6
f 118/155/6 66/152/6 65/156/6
f 65/156/6 121/160/6 118/155/6
f 116/151/6 118/155/6 119/157/6
f 119/157/6 117/153/6 116/151/6
f 109/154/6 117/153/6 120/158/6
f 120/158/6 111/159/6 109/154/6
f 119/157/6 118/155/6 121/160/6
f 121/160/6 125/168/6 119/157/6
f 117/153/6 119/157/6 122/161/6
f 122/161/6 120/158/6 117/153/6
f 111/159/6 120/158/6 11/162/6
f 11/162/6 12/163/6 111/159/6
f 15/164/6 11/162/6 120/158/6
f 120/158/6 122/161/6 15/164/6
f 123/165/6 121/160/6 65/156/6
f 65/156/6 64/166/6 123/165/6
f 121/160/6 123/165/6 124/167/6
f 124/167/6 125/168/6 121/160/6
f 122/161/6 119/157/6 125/168/6
f 125/168/6 127/170/6 122/161/6
f 125/168/6 124/167/6 126/169/6
f 126/169/6 127/170/6 125/168/6
f 15/164/6 122/161/6 127/170/6
f 127/170/6 18/171/6 15/164/6
f 127/170/6 126/169/6 39/172/6
f 39/172/6 18/171/6 127/170/6
f 54/175/7 55/174/7 89/173/7
f 89/173/7 128/176/7 54/175/7
f 128/176/7 89/173/7 91/177/7
f 91/177/7 129/179/7 128/176/7
f 58/178/7 54/175/7 128/176/7
f 128/176/7 130/181/7 58/178/7
f 129/179/7 91/177/7 93/180/7
f 93/180/7 133/186/7 129/179/7
f 130/181/7 128/176/7 129/179/7
f 129/179/7 132/185/7 130/181/7
f 60/182/7 58/178/7 130/181/7
f 130/181/7 131/183/7 60/182/7
f 62/184/7 60/182/7 131/183/7
f 131/183/7 134/187/7 62/184/7
f 131/183/7 130/181/7 132/185/7
f 132/185/7 136/194/7 131/183/7
f 132/185/7 129/179/7 133/186/7
f 133/186/7 135/193/7 132/185/7
f 64/188/7 62/184/7 134/187/7
f 134/187/7 123/189/7 64/188/7
f 33/190/7 133/186/7 93/180/7
f 93/180/7 32/191/7 33/190/7
f 133/186/7 33/190/7 35/192/7
f 35/192/7 135/193/7 133/186/7
f 134/187/7 131/183/7 136/194/7
f 136/194/7 137/195/7 134/187/7
f 136/194/7 132/185/7 135/193/7
f 135/193/7 138/200/7 136/194/7
f 123/189/7 134/187/7 137/195/7
f 137/195/7 124/196/7 123/189/7
f 135/193/7 35/192/7 37/197/7
f 37/197/7 138/200/7 135/193/7
f 37/197/7 35/192/7 84/198/7
f 84/198/7 85/199/7 37/197/7
f 137/195/7 136/194/7 138/200/7
f 138/200/7 139/202/7 137/195/7
f 138/200/7 37/197/7 38/201/7
f 38/201/7 139/202/7 138/200/7
f 124/196/7 137/195/7 139/202/7
f 139/202/7 126/203/7 124/196/7
f 126/203/7 139/202/7 38/201/7
f 38/201/7 39/204/7 126/203/7
f 10/207/7 7/206/7 22/205/7
f 22/205/7 25/208/7 10/207/7
f 8/211/5 9/210/5 97/209/5
f 97/209/5 23/212/5 8/211/5
f 23/212/5 97/209/5 96/213/5
f 96/213/5 103/214/5 23/212/5
f 7/217/6 8/216/6 23/215/6
f 23/215/6 22/218/6 7/217/6
f 87/221/1 84/220/1 35/219/1
f 35/219/1 34/222/1 87/221/1
f 86/225/5 87/224/5 34/223/5
f 34/223/5 36/226/5 86/225/5
f 85/229/6 86/228/6 36/227/6
f 36/227/6 37/230/6 85/229/6
f 102/233/5 21/232/5 23/231/5
f 23/231/5 103/234/5 102/233/5
f 92/237/2 41/236/2 42/235/2
f 42/235/2 94/238/2 92/237/2
f 95/239/2 94/238/2 42/235/2
f 42/235/2 140/240/2 95/239/2
f 96/241/2 95/239/2 140/240/2
f 140/240/2 106/243/2 96/241/2
f 140/240/2 42/235/2 6/242/2
f 6/242/2 4/244/2 140/240/2
f 106/243/2 140/240/2 4/244/2
f 4/244/2 1/245/2 106/243/2
f 43/248/7 41/247/7 92/246/7
f 92/246/7 90/249/7 43/248/7
f 43/248/7 90/249/7 88/250/7
f 88/250/7 45/251/7 43/248/7
f 48/252/7 45/251/7 88/250/7
f 88/250/7 56/253/7 48/252/7
f 46/254/3 50/256/3 2/255/3
f 2/255/3 3/257/3 46/254/3
f 40/258/3 46/254/3 3/257/3
f 3/257/3 5/259/3 40/258/3
f 5/262/7 6/261/7 42/260/7
f 42/260/7 40/263/7 5/262/7

