# ProBuilder 4.2.3
# https://unity3d.com/unity/features/worldbuilding/probuilder
# 27/05/2020 18:55:15

mtllib ./Arbusto_3.mtl
o Arbusto 3

g Arbusto 3
v 0.3722045 0.4241829 -0.4890754
v 0.3722068 0.5930267 -0.4890731
v 0.1786558 0.5930273 -0.4890737
v 0.1786552 0.424182 -0.4890754
v -0.1573546 0.4241825 -0.4890759
v -0.1573526 0.5930267 -0.4890742
v -0.3722078 0.4241829 -0.4890754
v -0.3722062 0.593027 -0.4890737
v 0.3722071 0.5930266 0.599838
v 0.3722064 0.4241835 0.5998381
v 0.1786545 0.4241827 0.599838
v 0.1786569 0.5930268 0.5998381
v -0.157353 0.593026 0.5998392
v -0.1573533 0.4241832 0.5998392
v -0.3722055 0.5930268 0.5998381
v -0.372208 0.4241832 0.5998375
v 0.3722073 0.09998673 0.4890742
v 0.372207 -0.01920664 0.4890741
v 0.1786565 -0.01920664 0.4890741
v 0.1786569 0.09998614 0.4890742
v 0.372207 0.4241832 0.4890741
v 0.1786564 0.4241836 0.4890741
v -0.1573538 0.4241827 0.4890741
v -0.1573526 0.09998643 0.4890741
v -0.3722064 0.4241832 0.4890741
v -0.1573532 -0.01920635 0.4890742
v -0.3722056 0.09998703 0.4890742
v -0.3722062 -0.01920688 0.4890742
v 0.3722058 -0.01920706 -0.4890747
v 0.3722057 0.09998631 -0.4890742
v 0.1786552 0.09998608 -0.4890742
v 0.1786556 -0.0192064 -0.4890742
v -0.1573535 -0.01920784 -0.4890742
v -0.1573537 0.09998572 -0.4890742
v -0.3722066 -0.01920784 -0.4890742
v -0.372206 0.09998661 -0.4890736
v 0.1786558 0.7252066 0.4890741
v 0.3722068 0.7252061 0.4890741
v 0.3722076 0.5930259 0.4890764
v 0.1786575 0.5930259 0.4890741
v -0.1573529 0.7252052 0.4890741
v -0.1573527 0.5930263 0.4890741
v -0.3722073 0.7252064 0.4890741
v -0.3722056 0.5930257 0.4890741
v 0.3722078 0.593025 -0.547704
v 0.3722074 0.7252045 -0.5477058
v 0.1786572 0.7252051 -0.5477058
v 0.1786566 0.5930253 -0.5477046
v -0.157353 0.5930256 -0.5477052
v -0.157354 0.7252048 -0.5477058
v -0.3722076 0.5930262 -0.5477046
v -0.3722083 0.7252054 -0.5477057
v 0.3722051 -0.01920676 -0.3762984
v 0.1786552 -0.019207 -0.3762972
v 0.3722064 -0.0192064 -0.1399446
v -0.157355 -0.01920676 -0.3762984
v 0.1786559 -0.0192067 -0.1399446
v 0.3722064 -0.01920694 0.2276299
v -0.3722068 -0.019207 -0.3762972
v -0.3722064 -0.01920694 -0.1399446
v -0.157353 -0.01920813 -0.1399446
v 0.1786559 -0.01920784 0.2276293
v 0.3722065 -0.01920688 0.3767424
v -0.1573537 -0.01920664 0.2276299
v -0.3722065 -0.01920664 0.2276299
v -0.3722064 -0.01920664 0.3767413
v -0.1573532 -0.01920635 0.3767413
v 0.1786562 -0.01920724 0.3767401
v 0.3722053 0.09998631 -0.3762984
v 0.3722057 0.09998578 -0.5330458
v 0.3722045 0.4241825 -0.533047
v 0.3722068 0.09998608 -0.1399446
v 0.3722042 0.4241831 -0.3762984
v 0.3722065 0.09998667 0.2276305
v 0.3722044 0.4241821 -0.1399458
v 0.372207 0.09998643 0.3767413
v 0.3722047 0.4241835 0.2276281
v 0.3722061 0.4241824 0.3767412
v 0.3722067 0.5930259 0.2276315
v 0.3722071 0.5930268 -0.1399447
v 0.3722078 0.5930271 0.3767429
v 0.3722065 0.5930259 -0.3762973
v 0.3722063 0.7252065 -0.4890742
v 0.3722053 0.7252065 -0.3762984
v 0.3722065 0.8985079 -0.4890742
v 0.3722054 0.8985076 -0.3762973
v 0.3722063 0.7252066 -0.1399447
v 0.3722065 0.8985082 -0.1399447
v 0.3722068 0.7252069 0.2276292
v 0.3722067 0.7252055 0.3767412
v 0.3722065 0.811655 0.2276292
v 0.372205 0.8116553 0.3767412
v -0.372207 0.09998512 -0.3762972
v -0.3722064 0.09998637 -0.1399446
v -0.3722071 0.09998524 0.2276305
v -0.3722083 0.4241825 -0.533047
v -0.3722065 0.09998602 -0.5330458
v -0.3722069 0.4241831 -0.3762973
v -0.3722078 0.4241832 -0.1399475
v -0.3722069 0.5930256 -0.3762973
v -0.3722062 0.5930271 -0.1399447
v -0.3722069 0.4241832 0.2276304
v -0.3722064 0.09998643 0.3767413
v -0.372207 0.4241824 0.3767412
v -0.3722063 0.5930268 0.2276304
v -0.3722067 0.5930265 0.3767429
v -0.3722076 0.7252067 0.3767412
v -0.3722081 0.7252066 0.2276287
v -0.3722076 0.725206 -0.1399452
v -0.3722085 0.725206 -0.3762984
v -0.372207 0.8985077 -0.1399447
v -0.3722078 0.8985079 -0.3762974
v -0.3722073 0.7252063 -0.4890743
v -0.3722067 0.8985079 -0.4890742
v 0.1786552 0.7252061 0.3767412
v -0.157353 0.7252073 0.3767412
v 0.1786554 0.7252064 0.2276292
v -0.1573541 0.7252064 0.2276292
v -0.1573537 0.7252057 -0.1399447
v 0.1786551 0.7252063 -0.1399447
v 0.1786552 0.4241817 -0.533047
v 0.1786552 0.09998542 -0.5330458
v -0.1573539 0.09998542 -0.5330458
v -0.1573547 0.4241825 -0.5330476
v 0.1786555 0.8116553 0.3767412
v 0.1786549 0.8116544 0.2276292
v 0.1786568 0.8985081 -0.4890748
v 0.1786558 0.898508 -0.1399447
v -0.1573535 0.8985076 -0.4890748
v -0.157353 0.8985068 -0.1399447
v -0.1573533 0.7252054 -0.4890754
v 0.1786568 0.7252065 -0.4890754

vt 0.9980077 0.370933
vt 0.9350104 0.3709321
vt 0.9350101 0.443148
vt 0.9980081 0.4431482
vt 0.9980078 0.5685169
vt 0.9350104 0.5685161
vt 0.9980077 0.6486807
vt 0.9350103 0.6486802
vt 0.9288748 0.3709321
vt 0.8658777 0.3709324
vt 0.8658774 0.4431486
vt 0.9288749 0.4431477
vt 0.9288746 0.5685164
vt 0.8658776 0.5685164
vt 0.9288749 0.64868
vt 0.8658776 0.6486809
vt 0.04807571 0.434135
vt 0.003603526 0.4341351
vt 0.003603526 0.5063508
vt 0.04807549 0.5063506
vt 0.1690367 0.4341351
vt 0.1690368 0.5063509
vt 0.1690365 0.6317196
vt 0.0480756 0.6317191
vt 0.1690367 0.7118832
vt 0.003603637 0.6317194
vt 0.04807582 0.7118829
vt 0.003603414 0.7118832
vt 0.2688399 0.7158751
vt 0.2243676 0.7158751
vt 0.2243677 0.7880908
vt 0.2688396 0.7880906
vt 0.2688401 0.9134589
vt 0.2243678 0.9134591
vt 0.2688401 0.9936228
vt 0.2243675 0.9936227
vt 0.804289 0.4431482
vt 0.8042888 0.3709323
vt 0.7549711 0.3709321
vt 0.7549711 0.4431476
vt 0.8042885 0.5685164
vt 0.7549712 0.5685164
vt 0.8042889 0.6486807
vt 0.754971 0.6486801
vt 0.859742 0.3709321
vt 0.8104246 0.3709323
vt 0.8104244 0.4431478
vt 0.859742 0.443148
vt 0.8597419 0.5685166
vt 0.8104244 0.568517
vt 0.8597417 0.648681
vt 0.8104243 0.6486812
vt 0.9776594 0.04406145
vt 0.9776598 0.001983282
vt 0.9054442 0.001983505
vt 0.905444 0.04406168
vt 0.9776599 0.1322473
vt 0.7800753 0.04406145
vt 0.7800758 0.001983505
vt 0.9054443 0.1322473
vt 0.9776599 0.2693932
vt 0.6999118 0.04406168
vt 0.6999119 0.001983505
vt 0.699912 0.1322473
vt 0.780076 0.1322473
vt 0.9054443 0.2693929
vt 0.9776599 0.3250286
vt 0.7800757 0.2693932
vt 0.699912 0.2693932
vt 0.699912 0.3250282
vt 0.7800759 0.3250282
vt 0.9054444 0.3250277
vt 0.7800759 0.3669406
vt 0.6999121 0.3669406
vt 0.9054445 0.3669406
vt 0.9776602 0.3669406
vt 0.04646425 0.02385919
vt 0.00199206 0.02385897
vt 0.001992172 0.06593714
vt 0.04646425 0.06593714
vt 0.1674252 0.02385874
vt 0.04646408 0.007453041
vt 0.1674251 0.007452595
vt 0.04646413 0.1541229
vt 0.001992283 0.1541229
vt 0.1674253 0.06593714
vt 0.2304226 0.02385964
vt 0.04646436 0.2912691
vt 0.00199206 0.2912689
vt 0.1674249 0.1541225
vt 0.04646425 0.3469039
vt 0.00199206 0.3469043
vt 0.1674255 0.2912682
vt 0.04646436 0.3888163
vt 0.001992172 0.3888163
vt 0.1674253 0.3888163
vt 0.1674251 0.3469039
vt 0.2304222 0.2912695
vt 0.2304226 0.1541229
vt 0.2304227 0.3469045
vt 0.2304222 0.06593736
vt 0.2797402 0.02385919
vt 0.2304219 0.001983953
vt 0.2797394 0.001983283
vt 0.2797402 0.06593714
vt 0.3444006 0.02385919
vt 0.3444006 0.06593736
vt 0.2797402 0.1541229
vt 0.3444007 0.1541229
vt 0.2797403 0.2912686
vt 0.2797398 0.3469039
vt 0.3119949 0.2912686
vt 0.3119951 0.3469039
vt 0.2797399 0.3888163
vt 0.2304222 0.3888172
vt 0.2304225 0.4301435
vt 0.1674255 0.4301435
vt 0.6934581 0.06593736
vt 0.6934583 0.02385919
vt 0.6489857 0.02385942
vt 0.6489862 0.06593736
vt 0.6934581 0.1541229
vt 0.6489857 0.1541229
vt 0.693458 0.2912689
vt 0.6489862 0.2912691
vt 0.693458 0.3469039
vt 0.5280249 0.02385874
vt 0.528025 0.007452595
vt 0.6489859 0.007453041
vt 0.5280247 0.06593736
vt 0.5280247 0.1541221
vt 0.4650279 0.06593736
vt 0.4650274 0.02385942
vt 0.4650274 0.1541229
vt 0.5280247 0.2912691
vt 0.6489857 0.3469039
vt 0.6489856 0.3888163
vt 0.6934581 0.3888163
vt 0.5280247 0.3888163
vt 0.528025 0.3469039
vt 0.4650275 0.2912691
vt 0.4650279 0.3888163
vt 0.5280247 0.4301433
vt 0.4650275 0.4301435
vt 0.4650276 0.3469045
vt 0.41571 0.3888163
vt 0.4157099 0.3469039
vt 0.4157099 0.2912684
vt 0.4157101 0.1541227
vt 0.4157101 0.06593714
vt 0.3510495 0.1541229
vt 0.3510494 0.06593736
vt 0.41571 0.02385919
vt 0.3510494 0.02385919
vt 0.4157103 0.001983283
vt 0.4650277 0.00198373
vt 0.5560545 0.434135
vt 0.514142 0.434135
vt 0.514142 0.5063509
vt 0.5560545 0.5063511
vt 0.5560545 0.6317191
vt 0.514142 0.6317191
vt 0.6116897 0.506351
vt 0.5560545 0.7118835
vt 0.514142 0.7118834
vt 0.6116897 0.6317196
vt 0.6116899 0.7118837
vt 0.7488356 0.7118835
vt 0.7488354 0.6317194
vt 0.7488354 0.5063511
vt 0.7488354 0.4341353
vt 0.6116897 0.434135
vt 0.5080066 0.434135
vt 0.3870456 0.4341354
vt 0.3870459 0.5063506
vt 0.5080067 0.5063506
vt 0.5080067 0.631719
vt 0.3870456 0.6317193
vt 0.5080065 0.7118827
vt 0.3870456 0.7118833
vt 0.0433188 0.7158747
vt 0.001992479 0.7158749
vt 0.001992479 0.7880904
vt 0.04331969 0.7880902
vt 0.001992032 0.9134591
vt 0.04331969 0.9134589
vt 0.001992479 0.9936227
vt 0.04331969 0.9936227
vt 0.3395826 0.5063507
vt 0.3809098 0.4341352
vt 0.3395826 0.434135
vt 0.3809098 0.5063514
vt 0.3395826 0.6317194
vt 0.3809102 0.6317193
vt 0.3395826 0.7118831
vt 0.3809096 0.7118837
vt 0.3774503 0.7158752
vt 0.3218151 0.7158757
vt 0.3218151 0.7880911
vt 0.3774503 0.7880913
vt 0.3334473 0.5063503
vt 0.3334471 0.434135
vt 0.2913689 0.4341355
vt 0.2031833 0.5063508
vt 0.2031833 0.434135
vt 0.3334473 0.6317191
vt 0.2031833 0.631719
vt 0.2031833 0.7118832
vt 0.3334471 0.7118831
vt 0.2913689 0.7118835
vt 0.4164363 0.7158752
vt 0.3841816 0.7158753
vt 0.3841818 0.7880914
vt 0.4164365 0.7880912
vt 0.4943947 0.7158747
vt 0.4621401 0.7158747
vt 0.4621397 0.77151
vt 0.4943948 0.77151
vt 0.4231608 0.7880908
vt 0.4554159 0.7880907
vt 0.4554159 0.7158754
vt 0.4231606 0.7158747
vt 0.1155717 0.9134589
vt 0.05091085 0.9936228
vt 0.1155714 0.9936231
vt 0.05091096 0.9134589
vt 0.1155713 0.7880901
vt 0.05091074 0.7880901
vt 0.1155713 0.7158749
vt 0.05091085 0.7158747
vt 0.123022 0.993624
vt 0.1876826 0.9936237
vt 0.1876823 0.9134595
vt 0.123022 0.9134598
vt 0.1876827 0.7880912
vt 0.1230221 0.7880915
vt 0.1876828 0.7158754
vt 0.1230222 0.7158756
vt 0.2170093 0.7158759
vt 0.1951336 0.7158754
vt 0.1951334 0.7880914
vt 0.2170091 0.7880917
vt 0.1951332 0.9134599
vt 0.2170089 0.9134598
vt 0.1951334 0.9936244
vt 0.2170091 0.9936239
vt 0.1751725 0.5063508
vt 0.197048 0.434135
vt 0.1751721 0.4341355
vt 0.197048 0.5063506
vt 0.1751725 0.6317195
vt 0.197048 0.6317198
vt 0.1751721 0.7118837
vt 0.197048 0.711884
vt 0.2914464 0.715875
vt 0.2750403 0.715875
vt 0.2750403 0.7880906
vt 0.2914464 0.7880906
vt 0.2750403 0.9134589
vt 0.2914464 0.9134589
vt 0.2750403 0.9936227
vt 0.2914467 0.9936225
vt 0.2984277 0.7880902
vt 0.3148338 0.715875
vt 0.2984277 0.715875
vt 0.3148338 0.7880902
vt 0.2984279 0.9134588
vt 0.3148341 0.9134588
vt 0.2984277 0.9936228
vt 0.3148338 0.9936228

vn 1.539763E-06 1.164948E-05 -1
vn 3.836931E-13 -4.405365E-13 1
vn -1.077851E-06 -1 -1.321297E-06
vn 1 -1.654143E-11 5.020954E-06
vn -1 1.875221E-06 -5.681625E-06
vn 2.771575E-06 1 -5.306081E-06
vn 0 0 0

usemtl ArbustosC
f 86/203/6 85/202/6 127/201/6
f 114/209/7 112/210/7 111/208/7
f 3/3/1 2/2/1 1/1/1
f 1/1/1 4/4/1 3/3/1
f 3/3/1 4/4/1 5/5/1
f 5/5/1 6/6/1 3/3/1
f 6/6/1 5/5/1 7/7/1
f 7/7/1 8/8/1 6/6/1
f 11/11/2 10/10/2 9/9/2
f 9/9/2 12/12/2 11/11/2
f 11/11/2 12/12/2 13/13/2
f 13/13/2 14/14/2 11/11/2
f 14/14/2 13/13/2 15/15/2
f 15/15/2 16/16/2 14/14/2
f 19/19/2 18/18/2 17/17/2
f 17/17/2 20/20/2 19/19/2
f 20/20/2 17/17/2 21/21/2
f 21/21/2 22/22/2 20/20/2
f 20/20/2 22/22/2 23/23/2
f 23/23/2 24/24/2 20/20/2
f 19/19/2 20/20/2 24/24/2
f 24/24/2 26/26/2 19/19/2
f 24/24/2 23/23/2 25/25/2
f 25/25/2 27/27/2 24/24/2
f 26/26/2 24/24/2 27/27/2
f 27/27/2 28/28/2 26/26/2
f 31/31/1 30/30/1 29/29/1
f 29/29/1 32/32/1 31/31/1
f 31/31/1 32/32/1 33/33/1
f 33/33/1 34/34/1 31/31/1
f 34/34/1 33/33/1 35/35/1
f 35/35/1 36/36/1 34/34/1
f 39/39/2 38/38/2 37/37/2
f 37/37/2 40/40/2 39/39/2
f 40/40/2 37/37/2 41/41/2
f 41/41/2 42/42/2 40/40/2
f 42/42/2 41/41/2 43/43/2
f 43/43/2 44/44/2 42/42/2
f 47/47/1 46/46/1 45/45/1
f 45/45/1 48/48/1 47/47/1
f 47/47/1 48/48/1 49/49/1
f 49/49/1 50/50/1 47/47/1
f 50/50/1 49/49/1 51/51/1
f 51/51/1 52/52/1 50/50/1
f 32/55/3 29/54/3 53/53/3
f 53/53/3 54/56/3 32/55/3
f 54/56/3 53/53/3 55/57/3
f 55/57/3 57/60/3 54/56/3
f 32/55/3 54/56/3 56/58/3
f 56/58/3 33/59/3 32/55/3
f 57/60/3 55/57/3 58/61/3
f 58/61/3 62/66/3 57/60/3
f 33/59/3 56/58/3 59/62/3
f 59/62/3 35/63/3 33/59/3
f 60/64/3 59/62/3 56/58/3
f 56/58/3 61/65/3 60/64/3
f 61/65/3 56/58/3 54/56/3
f 54/56/3 57/60/3 61/65/3
f 61/65/3 57/60/3 62/66/3
f 62/66/3 64/68/3 61/65/3
f 62/66/3 58/61/3 63/67/3
f 63/67/3 68/72/3 62/66/3
f 60/64/3 61/65/3 64/68/3
f 64/68/3 65/69/3 60/64/3
f 66/70/3 65/69/3 64/68/3
f 64/68/3 67/71/3 66/70/3
f 67/71/3 64/68/3 62/66/3
f 62/66/3 68/72/3 67/71/3
f 66/70/3 67/71/3 26/73/3
f 26/73/3 28/74/3 66/70/3
f 26/73/3 67/71/3 68/72/3
f 68/72/3 19/75/3 26/73/3
f 19/75/3 68/72/3 63/67/3
f 63/67/3 18/76/3 19/75/3
f 53/79/4 29/78/4 30/77/4
f 30/77/4 69/80/4 53/79/4
f 69/80/4 30/77/4 1/81/4
f 1/81/4 73/86/4 69/80/4
f 1/81/4 30/77/4 70/82/4
f 70/82/4 71/83/4 1/81/4
f 53/79/4 69/80/4 72/84/4
f 72/84/4 55/85/4 53/79/4
f 73/86/4 1/81/4 2/87/4
f 2/87/4 82/101/4 73/86/4
f 55/85/4 72/84/4 74/88/4
f 74/88/4 58/89/4 55/85/4
f 75/90/4 72/84/4 69/80/4
f 69/80/4 73/86/4 75/90/4
f 58/89/4 74/88/4 76/91/4
f 76/91/4 63/92/4 58/89/4
f 77/93/4 74/88/4 72/84/4
f 72/84/4 75/90/4 77/93/4
f 63/92/4 76/91/4 17/94/4
f 17/94/4 18/95/4 63/92/4
f 21/96/4 17/94/4 76/91/4
f 76/91/4 78/97/4 21/96/4
f 78/97/4 76/91/4 74/88/4
f 74/88/4 77/93/4 78/97/4
f 79/98/4 77/93/4 75/90/4
f 75/90/4 80/99/4 79/98/4
f 78/97/4 77/93/4 79/98/4
f 79/98/4 81/100/4 78/97/4
f 80/99/4 75/90/4 73/86/4
f 73/86/4 82/101/4 80/99/4
f 21/96/4 78/97/4 81/100/4
f 81/100/4 39/115/4 21/96/4
f 82/101/4 2/87/4 83/102/4
f 83/102/4 84/105/4 82/101/4
f 83/102/4 2/87/4 45/103/4
f 45/103/4 46/104/4 83/102/4
f 84/105/4 83/102/4 85/106/4
f 85/106/4 86/107/4 84/105/4
f 82/101/4 84/105/4 87/108/4
f 87/108/4 80/99/4 82/101/4
f 87/108/4 84/105/4 86/107/4
f 86/107/4 88/109/4 87/108/4
f 80/99/4 87/108/4 89/110/4
f 89/110/4 79/98/4 80/99/4
f 79/98/4 89/110/4 90/111/4
f 90/111/4 81/100/4 79/98/4
f 90/111/4 89/110/4 91/112/4
f 91/112/4 92/113/4 90/111/4
f 81/100/4 90/111/4 38/114/4
f 38/114/4 39/115/4 81/100/4
f 21/96/4 39/115/4 9/116/4
f 9/116/4 10/117/4 21/96/4
f 36/120/5 35/119/5 59/118/5
f 59/118/5 93/121/5 36/120/5
f 93/121/5 59/118/5 60/122/5
f 60/122/5 94/123/5 93/121/5
f 94/123/5 60/122/5 65/124/5
f 65/124/5 95/125/5 94/123/5
f 95/125/5 65/124/5 66/126/5
f 66/126/5 103/136/5 95/125/5
f 7/127/5 36/120/5 93/121/5
f 93/121/5 98/130/5 7/127/5
f 36/120/5 7/127/5 96/128/5
f 96/128/5 97/129/5 36/120/5
f 98/130/5 93/121/5 94/123/5
f 94/123/5 99/131/5 98/130/5
f 99/131/5 94/123/5 95/125/5
f 95/125/5 102/135/5 99/131/5
f 7/127/5 98/130/5 100/132/5
f 100/132/5 8/133/5 7/127/5
f 98/130/5 99/131/5 101/134/5
f 101/134/5 100/132/5 98/130/5
f 101/134/5 99/131/5 102/135/5
f 102/135/5 105/141/5 101/134/5
f 102/135/5 95/125/5 103/136/5
f 103/136/5 104/140/5 102/135/5
f 27/137/5 103/136/5 66/126/5
f 66/126/5 28/138/5 27/137/5
f 103/136/5 27/137/5 25/139/5
f 25/139/5 104/140/5 103/136/5
f 105/141/5 102/135/5 104/140/5
f 104/140/5 106/145/5 105/141/5
f 104/140/5 25/139/5 44/142/5
f 44/142/5 106/145/5 104/140/5
f 44/142/5 25/139/5 16/143/5
f 16/143/5 15/144/5 44/142/5
f 106/145/5 44/142/5 43/146/5
f 43/146/5 107/147/5 106/145/5
f 106/145/5 107/147/5 108/148/5
f 108/148/5 105/141/5 106/145/5
f 105/141/5 108/148/5 109/149/5
f 109/149/5 101/134/5 105/141/5
f 101/134/5 109/149/5 110/150/5
f 110/150/5 100/132/5 101/134/5
f 110/150/5 109/149/5 111/151/5
f 111/151/5 112/152/5 110/150/5
f 100/132/5 110/150/5 113/153/5
f 113/153/5 8/133/5 100/132/5
f 113/153/5 110/150/5 112/152/5
f 112/152/5 114/154/5 113/153/5
f 8/133/5 113/153/5 52/155/5
f 52/155/5 51/156/5 8/133/5
f 37/159/6 38/158/6 90/157/6
f 90/157/6 115/160/6 37/159/6
f 37/159/6 115/160/6 116/161/6
f 116/161/6 41/162/6 37/159/6
f 116/161/6 115/160/6 117/163/6
f 117/163/6 118/166/6 116/161/6
f 41/162/6 116/161/6 107/164/6
f 107/164/6 43/165/6 41/162/6
f 107/164/6 116/161/6 118/166/6
f 118/166/6 108/167/6 107/164/6
f 109/168/6 108/167/6 118/166/6
f 118/166/6 119/169/6 109/168/6
f 119/169/6 118/166/6 117/163/6
f 117/163/6 120/170/6 119/169/6
f 87/171/6 120/170/6 117/163/6
f 117/163/6 89/172/6 87/171/6
f 121/175/1 71/174/1 70/173/1
f 70/173/1 122/176/1 121/175/1
f 121/175/1 122/176/1 123/177/1
f 123/177/1 124/178/1 121/175/1
f 124/178/1 123/177/1 97/179/1
f 97/179/1 96/180/1 124/178/1
f 12/183/6 9/182/6 39/181/6
f 39/181/6 40/184/6 12/183/6
f 13/185/6 12/183/6 40/184/6
f 40/184/6 42/186/6 13/185/6
f 15/187/6 13/185/6 42/186/6
f 42/186/6 44/188/6 15/187/6
f 22/189/3 21/191/3 10/190/3
f 10/190/3 11/192/3 22/189/3
f 23/193/3 22/189/3 11/192/3
f 11/192/3 14/194/3 23/193/3
f 25/195/3 23/193/3 14/194/3
f 14/194/3 16/196/3 25/195/3
f 125/199/6 92/198/6 91/197/6
f 91/197/6 126/200/6 125/199/6
f 86/203/6 127/201/6 128/204/6
f 128/204/6 88/205/6 86/203/6
f 128/204/6 127/201/6 129/206/6
f 129/206/6 130/207/6 128/204/6
f 114/209/6 111/208/6 130/207/6
f 130/207/6 129/206/6 114/209/6
f 126/213/1 91/212/1 89/211/1
f 89/211/1 117/214/1 126/213/1
f 125/217/5 126/216/5 117/215/5
f 117/215/5 115/218/5 125/217/5
f 92/221/2 125/220/2 115/219/2
f 115/219/2 90/222/2 92/221/2
f 131/223/1 113/225/1 114/224/1
f 114/224/1 129/226/1 131/223/1
f 132/227/1 131/223/1 129/226/1
f 129/226/1 127/228/1 132/227/1
f 83/229/1 132/227/1 127/228/1
f 127/228/1 85/230/1 83/229/1
f 130/233/2 111/232/2 109/231/2
f 109/231/2 119/234/2 130/233/2
f 128/235/2 130/233/2 119/234/2
f 119/234/2 120/236/2 128/235/2
f 88/237/2 128/235/2 120/236/2
f 120/236/2 87/238/2 88/237/2
f 48/241/3 45/240/3 2/239/3
f 2/239/3 3/242/3 48/241/3
f 49/243/3 48/241/3 3/242/3
f 3/242/3 6/244/3 49/243/3
f 51/245/3 49/243/3 6/244/3
f 6/244/3 8/246/3 51/245/3
f 132/247/6 83/249/6 46/248/6
f 46/248/6 47/250/6 132/247/6
f 131/251/6 132/247/6 47/250/6
f 47/250/6 50/252/6 131/251/6
f 113/253/6 131/251/6 50/252/6
f 50/252/6 52/254/6 113/253/6
f 122/257/3 70/256/3 30/255/3
f 30/255/3 31/258/3 122/257/3
f 123/259/3 122/257/3 31/258/3
f 31/258/3 34/260/3 123/259/3
f 97/261/3 123/259/3 34/260/3
f 34/260/3 36/262/3 97/261/3
f 4/263/6 1/265/6 71/264/6
f 71/264/6 121/266/6 4/263/6
f 5/267/6 4/263/6 121/266/6
f 121/266/6 124/268/6 5/267/6
f 7/269/6 5/267/6 124/268/6
f 124/268/6 96/270/6 7/269/6

