# ProBuilder 4.2.3
# https://unity3d.com/unity/features/worldbuilding/probuilder
# 27/05/2020 18:58:26

mtllib ./Flor_Curva_3.mtl
o Flor Curva 3

g Flor Curva 3
v 0.01124919 0.5111482 -0.001897733
v 0.02562666 0.5262412 -0.0004992289
v 0.005757454 0.5311029 -0.004746894
v -0.006522414 0.5183747 0.006373604
v 0.005757454 0.5056465 0.01749404
v 0.02562666 0.5105082 0.01324638
v 0.01674092 0.5427956 0.008636315
v -0.003128288 0.5379339 0.01288398
v -0.003128288 0.5222009 0.02662959
v 0.01674092 0.5173392 0.03087725
v 0.02902079 0.5300674 0.01975675
v 0.01124919 0.5372939 0.02802809
v -0.01689696 0.5953177 0.05418392
v -0.01508343 0.5983456 0.04889937
v 0.002846005 0.5355721 0.01908418
v 0.001032594 0.5325441 0.02436866
v -0.09477007 0.6513638 0.07774016
v -0.05653417 0.576063 0.0269592
v -0.09658349 0.6483359 0.08302476
v -0.05834758 0.5730351 0.03224369
v -0.001096127 0.4940395 -0.06004355
v -0.00211775 0.5001874 -0.06128589
v 0.00838137 0.515923 0.007946272
v 0.009402993 0.5097751 0.009188672
v 0.04686058 0.4696489 -0.142902
v 0.04849852 0.5062496 -0.05142198
v 0.0478822 0.463501 -0.1416596
v 0.04952002 0.5001017 -0.05017958
v 0.05784417 0.5101139 -0.04286001
v 0.05465734 0.5151256 -0.04512064
v 0.01786733 0.5194591 0.01635011
v 0.02105427 0.5144475 0.0186108
v 0.1462195 0.5291923 -0.08268593
v 0.08116186 0.5425479 -0.009884696
v 0.1494066 0.5241807 -0.08042524
v 0.0843488 0.5375362 -0.007624011
v 0.04858649 0.580905 0.05150058
v 0.04846931 0.5839772 0.04593893
v 0.007262948 0.5321782 0.01819285
v 0.007380011 0.529106 0.02375444
v 0.04601729 0.6590003 0.1119556
v -0.001572249 0.5927651 0.0566469
v 0.04613436 0.655928 0.1175171
v -0.001455066 0.5896928 0.06220849
v -0.05850863 0.5252785 -0.0295764
v -0.05620157 0.5308371 -0.03161703
v 0.00244582 0.5212715 0.00863113
v 0.0001388814 0.515713 0.01067187
v -0.1018096 0.4952945 -0.1131603
v -0.02113163 0.5021629 -0.05699281
v -0.1041166 0.4897359 -0.1111197
v -0.02343857 0.4966044 -0.05495219
v -0.06098878 0.5674259 0.01580258
v -0.05817794 0.5712557 0.0115818
v -1.072622E-05 0.5292181 0.01217421
v -0.002821562 0.5253882 0.01639505
v -0.1535165 0.5725261 -0.01844488
v -0.0638454 0.5317892 -0.02167956
v -0.1563275 0.5686963 -0.01422409
v -0.06665611 0.5279593 -0.01745878
v 0.08435094 0.5466999 0.009536167
v 0.08223057 0.5494826 0.004230996
v 0.01531863 0.5290725 0.02026727
v 0.01743901 0.5262899 0.02557244
v 0.1542071 0.6121255 0.03402903
v 0.05985916 0.5837575 0.03618069
v 0.1563274 0.6093429 0.03933426
v 0.06197942 0.5809749 0.04148592
v 0.01987857 0.4287784 0.0596421
v 0.01987857 0.5044268 0.01410027
v 0.008866998 0.5044268 0.01410024
v 0.008866998 0.4287784 0.0596421
v 0.01987857 0.2116011 0.1171356
v 0.008866998 0.2116011 0.1171356
v 0.01987857 0.002749354 0.1268832
v 0.008866998 0.002749354 0.1268832
v 0.003361213 0.5044268 0.02363654
v 0.003361213 0.4287784 0.06917839
v 0.003361213 0.2116011 0.1266719
v 0.003361213 0.002749354 0.1364195
v 0.008866998 0.5044268 0.03317286
v 0.008866998 0.4287784 0.07871469
v 0.008866998 0.2116011 0.1362081
v 0.008866998 0.002749354 0.1459558
v 0.01987857 0.5044268 0.03317286
v 0.01987857 0.4287784 0.07871469
v 0.02538435 0.5044268 0.02363654
v 0.02538435 0.4287784 0.06917839
v 0.01987857 0.2116011 0.1362081
v 0.02538435 0.2116011 0.1266719
v 0.01987857 0.002749354 0.1459558
v 0.02538435 0.002749354 0.1364195
v 0.01437278 0.002749354 0.1364195
v 0.01437278 0.5044268 0.02363654

vt 0.8956591 0.4047705
vt 0.875562 0.3856261
vt 0.8690886 0.4120829
vt 0.8860368 0.4284343
vt 0.6918164 0.3856261
vt 0.6681527 0.3966399
vt 0.684504 0.4114473
vt 0.7109608 0.4057913
vt 0.7192389 0.3856261
vt 0.7183867 0.4057912
vt 0.739336 0.3874882
vt 0.8069093 0.4236117
vt 0.7950776 0.4114473
vt 0.7804525 0.4292676
vt 0.8527513 0.4292676
vt 0.861847 0.4057913
vt 0.835803 0.4144601
vt 0.8408977 0.3874883
vt 0.8188547 0.3996527
vt 0.699129 0.4292677
vt 0.7444308 0.41446
vt 0.7613791 0.3996526
vt 0.7686207 0.4057913
vt 0.6726722 0.4236117
vt 0.7274825 0.4292676
vt 0.8114288 0.3966399
vt 0.787765 0.3856261
vt 0.8609949 0.3856261
vt 0.9090514 0.4284342
vt 0.9291486 0.4092899
vt 0.9025779 0.4019774
vt 0.9195261 0.3856261
vt 0.04030474 0.9233798
vt 0.04734134 0.9274115
vt 0.08704186 0.8438253
vt 0.08000526 0.8397934
vt 0.2228212 0.8636673
vt 0.1844183 0.9697742
vt 0.2520357 0.9188611
vt 0.2625217 0.8397934
vt 0.1713565 0.998008
vt 0.1783932 0.993976
vt 0.1107756 0.8937094
vt 0.103739 0.8977411
vt 0.3481057 0.9697741
vt 0.3097027 0.8636674
vt 0.2700021 0.8397933
vt 0.2804881 0.918861
vt 0.1002896 0.8397934
vt 0.09325303 0.8438253
vt 0.001901642 0.993976
vt 0.008938456 0.998008
vt 0.5655567 0.09417824
vt 0.5737429 0.09583249
vt 0.5946957 0.003646338
vt 0.5865094 0.001992032
vt 0.6774553 0.09417824
vt 0.7426724 0.2028544
vt 0.7448534 0.0810439
vt 0.6914354 0.001992032
vt 0.6093605 0.001992032
vt 0.6011742 0.003646442
vt 0.64991 0.1254567
vt 0.6580962 0.1238025
vt 0.8170931 0.001992058
vt 0.751876 0.110668
vt 0.7658561 0.2028543
vt 0.8192739 0.1238024
vt 0.6627905 0.2045087
vt 0.6709769 0.2028544
vt 0.524893 0.2028542
vt 0.5330793 0.2045086
vt 0.8708711 0.3285846
vt 0.8678609 0.332828
vt 0.9497124 0.3818158
vt 0.9527224 0.3775722
vt 0.7619638 0.3328281
vt 0.811984 0.2109084
vt 0.7150454 0.2975359
vt 0.6801124 0.3818158
vt 0.8089737 0.2066647
vt 0.7120352 0.2932924
vt 0.820851 0.2066646
vt 0.9177895 0.2932923
vt 0.5621033 0.4693699
vt 0.5687765 0.4736136
vt 0.5995203 0.3893336
vt 0.592847 0.3850901
vt 0.8178408 0.2109083
vt 0.6299046 0.2772918
vt 0.6373101 0.2813827
vt 0.6742555 0.2124098
vt 0.66685 0.208319
vt 0.4222188 0.9304151
vt 0.4189538 0.8425106
vt 0.3555859 0.9161569
vt 0.3673504 0.9673604
vt 0.5287379 0.7460425
vt 0.5361434 0.7419516
vt 0.4624971 0.6537562
vt 0.4550916 0.657847
vt 0.4915138 0.8747027
vt 0.494779 0.7867982
vt 0.4399104 0.7498528
vt 0.4281461 0.8010564
vt 0.4112936 0.5730817
vt 0.403888 0.5771725
vt 0.5420002 0.3771888
vt 0.5494056 0.3812798
vt 0.6548424 0.466254
vt 0.6622438 0.4631821
vt 0.6495069 0.3850901
vt 0.6421055 0.3881618
vt 0.272091 0.7274039
vt 0.2113615 0.8359829
vt 0.3187884 0.761193
vt 0.350183 0.6738114
vt 0.3634412 0.6738114
vt 0.3560398 0.6765285
vt 0.3651855 0.7513185
vt 0.3725869 0.7486013
vt 0.0666832 0.6738114
vt 0.1274125 0.7823905
vt 0.2055047 0.8359832
vt 0.1741101 0.7486014
vt 0.3906297 0.8387003
vt 0.3980311 0.8359829
vt 0.5007063 0.8584319
vt 0.5081077 0.8611491
vt 0.5554345 0.75257
vt 0.5480331 0.7498528
vt 0.4103298 0.08318738
vt 0.41595 0.07944459
vt 0.4151611 0.001992032
vt 0.4095409 0.005734819
vt 0.455932 0.2063929
vt 0.4602392 0.08699121
vt 0.471524 0.2063929
vt 0.4771442 0.2101358
vt 0.4728371 0.09073381
vt 0.4672169 0.08699118
vt 0.5171263 0.08318746
vt 0.5179152 0.005734845
vt 0.5122949 0.001992058
vt 0.4503119 0.2101358
vt 0.8333608 0.09783234
vt 0.8262967 0.1006557
vt 0.8476498 0.1897524
vt 0.8547139 0.186929
vt 0.9298584 0.1006558
vt 0.8901808 0.004815216
vt 0.8873158 0.1304444
vt 0.9085054 0.1897524
vt 0.8831167 0.001992032
vt 0.8802516 0.1276211
vt 0.9227943 0.09783237
vt 0.9014413 0.186929
vt 0.8730384 0.001992058
vt 0.8659742 0.004815242
vt 0.01656408 0.1027218
vt 0.01656408 0.001992136
vt 0.001901642 0.001992136
vt 0.001901642 0.1027218
vt 0.01656408 0.3919044
vt 0.001901642 0.3919044
vt 0.01656408 0.6700011
vt 0.001901642 0.6700011
vt 0.0831947 0.5692714
vt 0.0225534 0.6700011
vt 0.03525148 0.6700011
vt 0.09589278 0.5692714
vt 0.1597502 0.2800888
vt 0.1724483 0.2800888
vt 0.1727297 0.001992058
vt 0.1854278 0.001992058
vt 0.04794959 0.6700011
vt 0.1085908 0.5692714
vt 0.1851463 0.2800888
vt 0.1981258 0.001992058
vt 0.614087 0.3850901
vt 0.614087 0.4457313
vt 0.6287494 0.4457313
vt 0.6287494 0.3850901
vt 0.294419 0.5692714
vt 0.3550602 0.6700011
vt 0.3677584 0.6700011
vt 0.307117 0.5692714
vt 0.2178635 0.2800888
vt 0.2305616 0.2800888
vt 0.204884 0.001992058
vt 0.2175822 0.001992058
vt 0.3804564 0.6700011
vt 0.3198151 0.5692714
vt 0.2432597 0.2800888
vt 0.2302801 0.001992058
vt 0.3872147 0.2800888
vt 0.3872147 0.5692714
vt 0.4018771 0.5692714
vt 0.4018771 0.2800888
vt 0.3872147 0.001992058
vt 0.4018771 0.001992058
vt 0.9273264 0.4542382
vt 0.9400245 0.446907
vt 0.9273264 0.4395758
vt 0.9400245 0.4615695
vt 0.9400245 0.4322445
vt 0.9527225 0.4542382
vt 0.9527225 0.4395758
vt 0.6287494 0.4711275
vt 0.6214182 0.4584295
vt 0.614087 0.4711275
vt 0.6360807 0.4584295
vt 0.6067557 0.4584295

vn 0.187595 -0.08805374 -0.9782917
vn -0.491126 -0.2541272 -0.8331954
vn -0.4911254 -0.7915482 -0.3636583
vn 0.1875916 -0.9576217 -0.2185634
vn 0.607065 -0.5228345 -0.5984282
vn 0.3035323 0.5800683 -0.7559027
vn -0.7946562 0.3113584 -0.521131
vn -0.7946553 -0.5582073 0.2385949
vn 0.3035316 -0.8269202 0.473362
vn 0.9822463 -0.1234269 -0.1412725
vn 0.7946553 0.5582073 -0.2385949
vn -0.3035316 0.8269202 -0.473362
vn -0.9822463 0.1234269 0.1412725
vn -0.3035324 -0.5800683 0.7559027
vn 0.7946562 -0.3113584 0.521131
vn 0.4911254 0.7915482 0.3636583
vn -0.1875917 0.9576218 0.2185634
vn -0.6070649 0.5228345 0.5984281
vn -0.187595 0.08805374 0.9782917
vn 0.4911261 0.2541271 0.8331954
vn 0.9252856 0.08919339 0.3686343
vn 0.1545178 0.5295149 -0.8297039
vn 0.1046957 0.5920407 -0.7990786
vn 0.2043398 0.4669891 -0.8603293
vn -0.8948132 -0.1783696 -0.4092599
vn 0.05145931 -0.4164322 0.9077094
vn -0.3443683 -0.6388207 0.6879816
vn -0.5184833 -0.6529852 -0.5520738
vn 0.5923358 0.5944325 0.5438644
vn -0.9760914 -0.1264794 0.1767722
vn -0.05736698 0.9513648 -0.2903179
vn -0.03892453 0.9279828 -0.3705843
vn -0.07580943 0.9747468 -0.2100515
vn 0.985946 0.1482739 -0.07697625
vn -0.1859447 -0.9516543 0.244497
vn 0.3031394 -0.8866186 0.349305
vn 0.8219255 0.2408822 0.5161532
vn -0.8698846 -0.232466 -0.4350407
vn -0.6969481 -0.6118822 -0.3739833
vn -0.3731266 0.8438255 -0.3760394
vn -0.3068563 0.8490892 -0.4299845
vn -0.439397 0.8385617 -0.3220943
vn 0.6407378 0.6148576 0.4597883
vn 0.2301937 -0.9513424 0.2048379
vn 0.4780693 -0.6827993 0.5524807
vn 0.1728473 0.4942289 0.8519751
vn -0.2521842 -0.5265774 -0.8118618
vn 0.8185464 -0.4953554 -0.2908689
vn -0.06699072 0.5917802 -0.7987358
vn -0.04488771 0.6591141 -0.7507021
vn -0.08909372 0.5244462 -0.8467695
vn -0.8730792 0.4187733 0.2497233
vn 0.2997571 -0.6246889 0.7210476
vn -0.1892184 -0.5457121 0.81633
vn -0.9921762 -0.1169451 -0.04370615
vn 0.9994047 0.03444267 -0.002020377
vn -0.4477233 0.4659944 0.7631469
vn 0.3446121 0.8195189 -0.4497797
vn 0.2888532 0.8078866 -0.5136955
vn 0.4003709 0.8311512 -0.3858638
vn 0.5291169 -0.4771873 -0.7016606
vn -0.4952376 -0.6601601 0.5647375
vn -0.1465202 -0.9343917 0.3247214
vn 0.8802653 -0.4349484 -0.1896125
vn -0.8474536 0.4532105 0.2764466
vn 0.384059 0.5419541 0.7475189
vn 0.3271523 0.5785568 -0.7422357
vn 0.2468278 0.6035262 -0.7581767
vn 0.4074767 0.5535874 -0.7262945
vn -0.2989727 -0.5991299 -0.7427373
vn -0.2826208 -0.3786385 0.881339
vn -0.3265368 -0.7630694 0.5577624
vn 0.2590082 -0.7948499 -0.5487517
vn -0.1767058 0.7846208 0.5942604
vn 0.1395691 -0.8528687 -0.5031258
vn -0.2707832 0.5532451 -0.7831135
vn -0.1971111 0.5965555 -0.7779902
vn -0.3444554 0.5099346 -0.7882368
vn -0.2343875 0.8192372 0.5233669
vn 0.3613118 -0.7052836 0.6099417
vn 0.1339404 -0.3759197 0.9169211
vn -0.7290251 0.4415938 0.5229889
vn 0.6692867 -0.5136199 -0.5368892
vn 1.159349E-06 -0.5157675 -0.8567287
vn 0 -0.2559149 -0.9666992
vn 0 -0.04662174 -0.9989126
vn -0.829271 -0.288235 -0.4787799
vn -0.858537 -0.1312208 -0.4956768
vn -0.8657895 -0.02332992 -0.4998642
vn -0.8292713 0.2882347 0.4787796
vn -0.8585368 0.1312209 0.495677
vn -0.8657895 0.02332995 0.4998643
vn 0 0.5157673 0.8567287
vn 0.8292713 0.2882347 0.4787796
vn 0.8585368 0.1312209 0.495677
vn 0.8657895 0.02332995 0.4998643
vn 0.8292707 -0.2882352 -0.4787804
vn 0.858537 -0.1312208 -0.4956767
vn 0.8657895 -0.02332992 -0.4998642
vn 0 0.2559149 0.9666994
vn 0 0.04662185 0.9989126
vn 0 -1 0
vn 0 1 0

usemtl FlorB3
f 3/3/1 2/2/1 1/1/1
f 4/4/2 3/3/2 1/1/2
f 5/7/3 4/6/3 1/5/3
f 6/8/4 5/7/4 1/5/4
f 2/11/5 6/10/5 1/9/5
f 3/14/6 7/13/6 2/12/6
f 4/17/7 8/16/7 3/15/7
f 5/19/8 9/18/8 4/17/8
f 6/8/9 10/20/9 5/7/9
f 2/11/10 11/21/10 6/10/10
f 7/22/11 11/21/11 2/11/11
f 8/23/12 7/13/12 3/14/12
f 9/18/13 8/16/13 4/17/13
f 10/20/14 9/24/14 5/7/14
f 11/21/15 10/25/15 6/10/15
f 7/13/16 12/27/16 11/26/16
f 8/23/17 12/27/17 7/13/17
f 9/18/18 12/28/18 8/16/18
f 10/31/19 12/30/19 9/29/19
f 11/32/20 12/30/20 10/31/20
f 16/47/26 13/46/26 19/45/26
f 20/48/27 16/47/27 19/45/27
f 24/67/35 21/66/35 27/65/35
f 28/68/36 24/67/36 27/65/36
f 32/76/44 29/73/44 35/83/44
f 36/84/45 32/76/45 35/83/45
f 40/104/53 37/103/53 43/102/53
f 44/105/54 40/104/54 43/102/54
f 48/124/62 45/123/62 51/122/62
f 52/125/63 48/124/63 51/122/63
f 56/143/71 53/142/71 59/139/71
f 60/140/72 56/143/72 59/139/72
f 64/157/80 61/156/80 67/154/80
f 68/155/81 64/157/81 67/154/81
f 75/204/102 93/203/102 76/202/102
f 84/207/102 93/203/102 91/208/102
f 70/209/103 94/210/103 87/212/103
f 81/181/103 94/210/103 77/213/103
f 15/35/21 14/34/21 13/33/21
f 13/33/21 16/36/21 15/35/21
f 18/39/22 17/38/23 14/37/22
f 14/37/22 15/40/24 18/39/22
f 20/43/25 19/42/25 17/41/25
f 17/41/25 18/44/25 20/43/25
f 18/44/28 15/50/28 16/49/28
f 16/49/28 20/43/28 18/44/28
f 14/34/29 17/52/29 19/51/29
f 19/51/29 13/33/29 14/34/29
f 23/55/30 22/54/30 21/53/30
f 21/53/30 24/56/30 23/55/30
f 26/59/31 25/58/32 22/57/31
f 22/57/31 23/60/33 26/59/31
f 28/63/34 27/62/34 25/61/34
f 25/61/34 26/64/34 28/63/34
f 26/64/37 23/70/37 24/69/37
f 24/69/37 28/63/37 26/64/37
f 22/54/38 25/72/38 27/71/38
f 27/71/38 21/53/38 22/54/38
f 31/75/39 30/74/39 29/73/39
f 29/73/39 32/76/39 31/75/39
f 34/79/40 33/78/41 30/77/40
f 30/77/40 31/80/42 34/79/40
f 36/82/43 35/81/43 33/78/43
f 33/78/43 34/79/43 36/82/43
f 34/87/46 31/86/46 32/85/46
f 32/85/46 36/88/46 34/87/46
f 30/74/47 33/89/47 35/83/47
f 35/83/47 29/73/47 30/74/47
f 39/92/48 38/91/48 37/90/48
f 37/90/48 40/93/48 39/92/48
f 42/96/49 41/95/50 38/94/49
f 38/94/49 39/97/51 42/96/49
f 44/100/52 43/99/52 41/98/52
f 41/98/52 42/101/52 44/100/52
f 42/101/55 39/107/55 40/106/55
f 40/106/55 44/100/55 42/101/55
f 38/91/56 41/109/56 43/108/56
f 43/108/56 37/90/56 38/91/56
f 47/112/57 46/111/57 45/110/57
f 45/110/57 48/113/57 47/112/57
f 50/116/58 49/115/59 46/114/58
f 46/114/58 47/117/60 50/116/58
f 52/120/61 51/119/61 49/118/61
f 49/118/61 50/121/61 52/120/61
f 50/121/64 47/127/64 48/126/64
f 48/126/64 52/120/64 50/121/64
f 46/130/65 49/129/65 51/128/65
f 51/128/65 45/131/65 46/130/65
f 55/134/66 54/133/66 53/132/66
f 53/132/66 56/135/66 55/134/66
f 58/137/67 57/136/68 54/133/67
f 54/133/67 55/134/69 58/137/67
f 60/140/70 59/139/70 57/138/70
f 57/138/70 58/141/70 60/140/70
f 58/141/73 55/144/73 56/143/73
f 56/143/73 60/140/73 58/141/73
f 54/133/74 57/136/74 59/145/74
f 59/145/74 53/132/74 54/133/74
f 63/148/75 62/147/75 61/146/75
f 61/146/75 64/149/75 63/148/75
f 66/152/76 65/151/77 62/150/76
f 62/150/76 63/153/78 66/152/76
f 68/155/79 67/154/79 65/151/79
f 65/151/79 66/152/79 68/155/79
f 66/152/82 63/153/82 64/157/82
f 64/157/82 68/155/82 66/152/82
f 62/147/83 65/159/83 67/158/83
f 67/158/83 61/146/83 62/147/83
f 71/162/84 70/161/84 69/160/84
f 69/160/84 72/163/84 71/162/84
f 72/163/85 69/160/85 73/164/85
f 73/164/85 74/165/85 72/163/85
f 74/165/86 73/164/86 75/166/86
f 75/166/86 76/167/86 74/165/86
f 77/170/87 71/169/87 72/168/87
f 72/168/87 78/171/87 77/170/87
f 78/171/88 72/168/88 74/172/88
f 74/172/88 79/173/88 78/171/88
f 79/173/89 74/172/89 76/174/89
f 76/174/89 80/175/89 79/173/89
f 81/176/90 77/170/90 78/171/90
f 78/171/90 82/177/90 81/176/90
f 82/177/91 78/171/91 79/173/91
f 79/173/91 83/178/91 82/177/91
f 83/178/92 79/173/92 80/175/92
f 80/175/92 84/179/92 83/178/92
f 85/182/93 81/181/93 82/180/93
f 82/180/93 86/183/93 85/182/93
f 87/186/94 85/185/94 86/184/94
f 86/184/94 88/187/94 87/186/94
f 88/187/95 86/184/95 89/188/95
f 89/188/95 90/189/95 88/187/95
f 90/189/96 89/188/96 91/190/96
f 91/190/96 92/191/96 90/189/96
f 70/192/97 87/186/97 88/187/97
f 88/187/97 69/193/97 70/192/97
f 69/193/98 88/187/98 90/189/98
f 90/189/98 73/194/98 69/193/98
f 73/194/99 90/189/99 92/191/99
f 92/191/99 75/195/99 73/194/99
f 86/198/100 82/197/100 83/196/100
f 83/196/100 89/199/100 86/198/100
f 89/199/101 83/196/101 84/200/101
f 84/200/101 91/201/101 89/199/101
f 80/205/102 76/202/102 93/203/102
f 93/203/102 84/207/102 80/205/102
f 91/208/102 93/203/102 75/204/102
f 75/204/102 92/206/102 91/208/102
f 77/213/103 94/210/103 70/209/103
f 70/209/103 71/211/103 77/213/103
f 85/182/103 87/212/103 94/210/103
f 94/210/103 81/181/103 85/182/103

